<?xml version="1.0" standalone="no"?>
<!DOCTYPE svg PUBLIC "-//W3C//DTD SVG 20010904//EN"
 "http://www.w3.org/TR/2001/REC-SVG-20010904/DTD/svg10.dtd">
<svg version="1.0" xmlns="http://www.w3.org/2000/svg"
 width="1436.000000pt" height="961.000000pt" viewBox="0 0 1436.000000 961.000000"
 preserveAspectRatio="xMidYMid meet">

<g transform="translate(0.000000,961.000000) scale(0.100000,-0.100000)"
fill="#000000" stroke="none">
<path d="M6695 9282 c-35 -16 -138 -32 -299 -46 -27 -2 -52 -9 -56 -16 -4 -7
-47 -18 -96 -25 -52 -8 -92 -19 -99 -28 -5 -8 -41 -20 -79 -26 -38 -7 -82 -21
-97 -32 -19 -13 -44 -19 -82 -19 -62 0 -87 -7 -87 -24 0 -6 -32 -20 -72 -30
-39 -10 -86 -27 -102 -37 -17 -11 -37 -19 -44 -19 -8 0 -28 -6 -45 -14 -18 -8
-70 -29 -117 -46 -47 -17 -94 -35 -105 -40 -11 -4 -39 -13 -62 -19 -25 -7 -44
-19 -48 -30 -4 -13 -19 -21 -50 -26 -28 -4 -49 -13 -54 -24 -6 -10 -28 -23
-50 -30 -22 -6 -45 -21 -51 -31 -6 -11 -18 -20 -28 -20 -9 0 -28 -9 -42 -20
-14 -11 -28 -20 -33 -20 -4 0 -26 -13 -49 -30 -22 -16 -47 -30 -55 -30 -8 0
-34 -20 -59 -45 -24 -25 -50 -45 -58 -45 -8 0 -18 -4 -21 -10 -3 -5 -15 -10
-25 -10 -13 0 -22 -9 -26 -25 -3 -14 -13 -25 -22 -25 -32 0 -81 -24 -85 -42
-3 -10 -13 -18 -23 -18 -10 0 -30 -11 -44 -25 -14 -14 -44 -42 -67 -61 -24
-20 -43 -42 -43 -49 0 -6 -19 -18 -42 -25 -37 -12 -121 -68 -139 -94 -4 -4 -4
-17 -2 -27 5 -19 2 -21 -75 -50 -22 -8 -40 -25 -53 -50 -19 -38 -50 -52 -64
-29 -9 14 -52 12 -78 -4 -26 -17 -125 -39 -138 -31 -13 9 -49 -14 -49 -31 0
-8 -11 -19 -25 -24 -14 -5 -28 -16 -31 -24 -3 -8 -16 -17 -30 -20 -14 -4 -26
-16 -30 -31 -5 -20 -13 -25 -36 -25 -20 0 -39 -10 -58 -30 -15 -16 -33 -30
-39 -30 -6 0 -16 -11 -21 -25 -7 -18 -17 -25 -35 -25 -19 0 -25 -5 -25 -21 0
-14 -10 -24 -30 -32 -20 -7 -30 -18 -30 -32 0 -35 -12 -65 -26 -65 -16 0 -25
-15 -33 -53 -4 -18 -14 -31 -24 -33 -24 -3 -24 71 0 85 14 8 15 12 4 25 -9 11
-30 16 -67 16 -43 0 -55 4 -64 20 -11 20 -7 22 91 44 14 3 36 15 49 26 13 11
31 20 42 20 10 0 22 10 27 23 5 13 16 29 25 36 9 7 16 22 16 32 0 10 5 21 10
24 6 3 10 15 10 25 0 10 9 21 19 25 13 4 24 23 32 56 7 28 21 55 31 60 14 7
18 22 18 62 0 66 21 157 36 157 7 0 14 6 16 13 7 18 -2 37 -18 37 -8 0 -14 10
-14 24 0 12 -5 37 -11 55 -10 28 -15 31 -55 31 -39 0 -46 -3 -54 -26 -6 -14
-7 -36 -4 -49 4 -17 0 -26 -15 -35 -26 -14 -27 -40 -2 -47 26 -7 33 -28 25
-79 -4 -30 -12 -45 -25 -49 -23 -8 -26 -45 -3 -45 12 0 14 -10 12 -52 l-3 -53
-42 -3 c-33 -2 -43 -8 -49 -25 -7 -23 -79 -97 -95 -97 -5 0 -9 -9 -9 -19 0
-11 -4 -23 -10 -26 -5 -3 -10 -15 -10 -26 0 -12 -7 -19 -18 -19 -10 0 -35 -15
-55 -33 -28 -25 -47 -33 -79 -34 -22 -1 -45 -6 -50 -11 -6 -6 -5 -32 1 -68 6
-32 11 -74 11 -95 0 -20 6 -42 14 -48 8 -7 17 -31 21 -54 9 -57 29 -85 68 -95
39 -10 50 -46 17 -55 -15 -4 -21 -12 -18 -28 2 -17 14 -25 58 -36 81 -22 83
-22 96 17 13 41 49 54 51 19 3 -29 6 -31 50 -31 34 0 52 -10 53 -30 0 -10 -46
-59 -51 -54 -2 2 -5 -12 -7 -32 -3 -48 -16 -60 -41 -38 -20 18 -51 16 -51 -3
0 -5 -8 -12 -17 -15 -21 -7 -43 -50 -43 -82 0 -11 -11 -33 -25 -48 -14 -15
-25 -35 -25 -45 0 -22 -19 -41 -41 -41 -12 0 -18 -13 -23 -50 -5 -35 -13 -53
-26 -60 -28 -15 -25 -37 9 -55 34 -17 36 -48 3 -53 -11 -2 -28 -14 -36 -28
-12 -17 -25 -24 -50 -24 -41 0 -53 -13 -62 -66 -6 -39 -5 -41 27 -50 41 -12
48 -31 16 -43 -19 -8 -26 -19 -31 -54 -6 -39 -11 -47 -36 -56 -22 -7 -30 -16
-30 -34 0 -13 -11 -33 -24 -44 -13 -12 -27 -35 -31 -51 -3 -17 -17 -38 -31
-46 -13 -9 -23 -20 -22 -24 5 -25 -17 -81 -36 -90 -18 -8 -22 -16 -18 -46 2
-20 9 -36 14 -36 6 0 8 -13 6 -29 -3 -24 0 -32 19 -40 13 -6 33 -11 43 -11 13
0 20 -7 20 -19 0 -12 11 -25 27 -33 34 -16 35 -30 6 -43 -15 -6 -23 -18 -23
-35 0 -52 -11 -70 -50 -81 -29 -9 -42 -21 -57 -50 -10 -21 -28 -44 -40 -50
-13 -7 -23 -18 -23 -26 0 -7 -9 -18 -21 -25 -11 -7 -29 -33 -40 -57 -17 -38
-17 -46 -5 -60 11 -13 14 -47 12 -165 -3 -141 -4 -151 -25 -164 -17 -12 -21
-24 -21 -68 0 -59 18 -73 42 -34 7 11 32 32 55 47 49 30 55 57 27 113 -13 25
-16 58 -15 140 1 95 4 113 26 151 17 30 25 59 25 92 l0 47 39 0 c49 0 67 -19
50 -52 -7 -13 -14 -30 -15 -38 -2 -8 -8 -38 -13 -66 -12 -66 -18 -265 -8 -281
5 -7 15 -13 23 -13 9 0 14 -7 12 -17 -2 -11 -12 -18 -26 -17 -16 1 -22 -4 -23
-20 -1 -55 -10 -82 -29 -95 -11 -7 -20 -19 -20 -25 0 -7 -11 -22 -25 -34 -14
-12 -25 -28 -25 -36 0 -8 -6 -16 -12 -19 -17 -5 -48 3 -48 14 0 5 -7 6 -15 3
-30 -12 -15 -84 17 -84 10 0 16 -4 13 -10 -3 -6 1 -10 10 -10 10 0 14 5 10 13
-4 6 3 1 14 -12 17 -19 21 -37 21 -91 l0 -69 -44 -22 c-74 -36 -84 -84 -30
-134 41 -38 59 -37 68 6 6 32 20 36 62 17 47 -22 53 2 47 176 -6 145 -5 154
14 167 11 8 22 21 25 29 9 26 21 -99 14 -149 -6 -47 12 -110 27 -94 4 3 7 -27
7 -67 0 -40 -3 -70 -7 -67 -4 4 -12 -6 -19 -22 -8 -18 -23 -33 -38 -37 -14 -3
-28 -16 -32 -27 -3 -12 -16 -42 -27 -67 -20 -44 -27 -145 -12 -169 12 -20 45
-12 54 12 9 22 71 91 76 85 29 -36 32 -88 5 -95 -19 -5 -25 -19 -44 -107 -4
-16 -15 -30 -26 -33 -19 -5 -24 -22 -32 -92 -2 -14 -9 -26 -15 -29 -10 -3 -13
15 -13 66 0 54 -4 72 -18 85 -32 29 -42 21 -43 -35 -2 -98 2 -123 22 -138 13
-11 21 -32 25 -70 9 -97 15 -120 28 -120 18 0 36 44 36 88 0 54 22 81 41 51 4
-7 8 -46 8 -87 0 -65 -2 -75 -19 -79 -24 -6 -43 -63 -38 -113 2 -27 8 -36 25
-38 26 -4 43 28 43 79 0 24 4 30 18 27 10 -2 18 -14 20 -30 2 -15 14 -36 27
-47 19 -14 26 -31 31 -77 9 -94 36 -101 48 -12 4 28 12 60 17 71 10 18 11 18
23 0 8 -10 16 -39 20 -65 5 -34 14 -51 31 -62 21 -14 25 -24 25 -66 0 -46 -2
-50 -24 -50 -24 0 -36 16 -36 50 0 25 -17 35 -35 20 -10 -8 -15 -32 -15 -69 0
-46 4 -61 25 -83 20 -22 25 -38 25 -78 0 -49 1 -50 30 -50 l30 0 1 63 c1 34 1
69 0 77 -2 24 16 43 33 37 13 -5 16 -22 16 -89 0 -71 -4 -89 -23 -118 -13 -19
-27 -47 -30 -62 -5 -18 -12 -25 -24 -23 -10 2 -21 4 -25 4 -5 1 -8 15 -8 31 0
17 -6 33 -14 36 -20 8 -39 75 -35 128 2 25 1 46 -3 46 -5 0 -8 -6 -8 -12 0 -7
-7 -3 -15 9 -8 12 -18 57 -21 108 -7 85 -7 86 -33 83 -24 -3 -26 -7 -33 -72
-4 -47 -12 -72 -22 -78 -12 -7 -16 -25 -16 -73 0 -35 3 -70 6 -79 11 -29 30
-16 42 29 17 63 42 61 43 -2 1 -69 12 -98 36 -101 21 -3 33 -27 33 -68 0 -12
10 -25 25 -32 22 -10 25 -18 25 -62 0 -43 3 -52 23 -61 18 -8 26 -23 33 -57 6
-31 15 -48 25 -50 15 -3 24 4 57 43 7 8 23 15 36 15 23 0 24 -4 31 -95 5 -62
3 -117 -5 -160 -10 -52 -10 -75 0 -113 23 -86 34 -112 51 -117 10 -4 21 -15
24 -26 4 -12 14 -19 23 -17 13 2 19 19 24 67 11 103 46 110 56 12 3 -30 12
-58 24 -71 14 -15 20 -38 22 -88 3 -63 20 -115 51 -152 7 -8 16 -33 20 -55 4
-21 15 -45 25 -52 10 -7 20 -23 22 -36 2 -12 13 -26 26 -32 12 -5 25 -19 28
-29 7 -20 82 -96 95 -96 5 0 11 5 14 10 21 34 57 -15 70 -92 3 -23 14 -42 25
-48 11 -6 20 -21 20 -33 0 -38 54 -88 101 -94 52 -7 119 -50 119 -76 0 -11 9
-21 21 -24 11 -3 24 -16 29 -28 6 -15 20 -25 44 -29 20 -4 36 -12 36 -19 0 -7
14 -21 30 -30 17 -10 36 -30 44 -45 17 -32 129 -132 148 -132 7 0 18 -8 25
-19 7 -10 29 -21 52 -25 31 -5 44 -13 53 -31 8 -18 19 -25 40 -25 18 0 37 -10
55 -30 14 -16 34 -30 44 -30 10 0 23 -9 29 -19 6 -12 27 -23 53 -28 31 -7 45
-15 55 -36 7 -15 20 -27 28 -27 8 0 19 -11 24 -25 6 -17 17 -25 32 -25 13 0
29 -9 36 -20 8 -13 23 -20 43 -20 56 0 119 -22 147 -51 15 -16 32 -29 39 -29
6 0 18 -9 25 -19 8 -11 32 -23 53 -26 37 -7 123 -48 135 -64 10 -14 71 -33 90
-28 11 3 48 -1 83 -9 34 -7 79 -16 99 -19 21 -3 43 -12 50 -19 7 -7 38 -13 68
-15 44 -2 65 -9 105 -37 46 -31 57 -34 121 -34 70 0 134 -14 134 -30 0 -4 21
-11 48 -15 26 -3 61 -11 77 -16 42 -13 461 -47 513 -42 33 4 55 -1 99 -23 55
-27 63 -28 223 -29 91 -1 171 -5 178 -9 37 -23 661 3 717 30 32 15 210 34 332
34 59 0 76 4 91 20 15 16 39 21 142 29 80 7 145 17 180 31 30 11 72 20 92 20
21 0 52 9 70 20 18 10 65 27 106 37 46 10 77 23 83 34 5 10 27 20 49 24 22 4
47 13 54 21 8 8 24 14 35 14 12 0 21 5 21 10 0 6 6 10 14 10 7 0 21 11 31 24
14 18 32 26 69 32 28 3 53 9 56 13 10 13 60 41 73 41 7 0 19 11 26 24 9 15 25
26 47 29 19 3 45 15 59 25 14 11 55 25 91 32 37 7 74 20 84 29 50 47 83 70
109 76 15 3 38 17 50 30 11 14 28 25 36 25 9 0 20 11 26 24 9 20 22 26 63 31
52 7 97 24 66 25 -17 0 10 17 86 54 29 13 56 31 60 39 14 24 121 107 138 107
8 0 21 10 27 23 23 45 63 76 96 77 44 0 63 9 63 30 0 19 73 100 90 100 6 0 10
7 10 15 0 8 4 15 9 15 5 0 14 13 21 30 7 16 15 30 19 30 4 0 12 13 18 30 6 16
18 30 26 30 8 0 20 13 26 30 5 16 16 30 23 30 12 0 42 55 39 72 0 4 10 15 24
24 14 9 25 24 25 34 0 11 10 20 30 24 17 3 30 12 30 19 0 7 11 24 25 37 14 13
25 29 25 35 0 6 9 28 20 50 11 22 20 45 20 53 0 7 13 18 29 23 18 6 32 20 35
34 3 13 14 26 24 30 20 7 62 90 62 122 0 12 5 25 10 28 6 3 15 27 22 52 6 27
18 47 27 50 15 4 37 44 77 138 8 19 22 39 33 44 12 7 21 26 25 55 5 30 12 45
25 49 13 3 20 18 24 51 4 26 18 63 32 84 14 20 25 44 25 54 0 10 11 41 24 70
13 29 29 76 36 105 6 29 18 57 25 63 8 7 17 33 21 58 4 28 14 53 25 62 12 9
23 38 30 75 6 33 18 73 26 90 9 18 19 82 24 163 8 103 14 142 31 173 12 23 23
62 24 88 24 348 26 367 42 391 15 22 17 75 17 515 1 554 -5 752 -21 763 -22
14 -32 48 -39 132 -4 47 -13 102 -20 124 -8 24 -10 47 -5 60 11 29 1 75 -21
105 -11 14 -19 40 -19 63 0 25 -5 41 -15 44 -18 7 -55 87 -55 120 0 12 -4 26
-10 29 -5 3 -10 19 -10 34 0 16 -7 34 -16 42 -30 25 -46 72 -46 133 1 90 -7
136 -24 136 -16 0 -44 57 -44 89 0 10 -6 21 -13 24 -7 3 -19 24 -27 48 -7 24
-22 51 -32 59 -10 8 -20 24 -22 35 -2 11 -7 39 -11 62 -4 28 -14 47 -31 58
-13 8 -24 24 -24 35 0 11 -7 20 -15 20 -9 0 -20 11 -25 25 -5 14 -21 30 -35
35 -23 9 -25 14 -25 74 0 93 -9 126 -36 137 -15 5 -24 17 -24 29 0 14 -10 24
-30 31 -16 6 -30 17 -30 25 0 8 -9 19 -20 26 -11 7 -20 17 -20 23 0 5 -5 27
-11 48 -7 26 -15 37 -29 37 -11 0 -20 -4 -20 -10 0 -5 -7 -10 -16 -10 -8 0
-13 -4 -10 -9 7 -11 -39 -20 -55 -10 -14 8 -27 88 -28 171 -1 69 -8 88 -30 88
-10 0 -23 11 -29 25 -7 14 -19 28 -28 32 -8 3 -20 16 -25 29 -4 13 -15 24 -24
24 -9 0 -20 12 -25 26 -6 14 -19 28 -30 31 -11 3 -23 16 -26 29 -4 14 -14 24
-24 24 -23 0 -62 53 -80 108 -9 29 -23 48 -41 57 -14 8 -29 21 -32 30 -4 8
-12 15 -19 15 -7 0 -21 14 -30 31 -17 29 -38 32 -38 4 0 -7 -10 -17 -21 -20
-26 -8 -84 46 -94 88 -5 17 -14 27 -26 27 -15 0 -19 7 -19 34 0 19 6 36 13 39
6 2 -15 12 -48 22 -33 10 -71 28 -85 41 -74 70 -91 84 -104 84 -8 0 -16 6 -19
14 -3 8 -24 22 -46 32 -22 9 -42 25 -44 36 -3 10 -13 21 -24 25 -10 4 -24 15
-31 25 -7 10 -24 18 -37 18 -18 0 -25 7 -30 30 -5 25 -12 30 -35 30 -38 0 -51
20 -57 90 -5 53 -9 63 -30 71 -13 5 -28 20 -33 34 -5 14 -17 25 -28 25 -10 0
-24 11 -30 25 -7 14 -20 25 -31 25 -11 0 -26 8 -33 19 -7 10 -30 24 -50 31
-20 7 -41 23 -46 35 -8 17 -23 24 -56 29 -32 5 -47 13 -51 27 -4 12 -15 19
-31 19 -14 0 -27 7 -31 15 -8 22 -68 45 -118 45 -39 0 -43 -2 -48 -30 -4 -16
-12 -30 -19 -30 -23 1 -76 57 -83 89 -4 17 -13 31 -21 31 -8 0 -24 11 -36 25
-12 14 -26 25 -32 25 -6 0 -16 10 -21 22 -9 20 -18 22 -111 23 -89 2 -104 4
-125 23 -22 21 -77 42 -110 42 -9 0 -23 9 -30 21 -12 17 -30 22 -114 29 -76 8
-103 14 -113 27 -10 15 -32 18 -135 20 -67 1 -122 3 -122 4 0 1 -70 3 -155 5
-144 4 -210 15 -210 35 0 4 -21 10 -47 14 -27 3 -86 12 -133 20 -253 43 -353
46 -418 15 -52 -25 -179 -29 -196 -5 -18 25 -104 29 -151 7z m-455 -662 c0
-11 -4 -20 -10 -20 -5 0 -10 -6 -10 -13 0 -19 -59 -42 -73 -28 -15 15 -3 24
33 23 17 0 28 4 25 9 -10 15 5 49 21 49 8 0 14 -9 14 -20z m-288 -88 c21 -21
0 -42 -41 -42 -43 0 -53 -12 -40 -49 8 -21 13 -22 47 -16 42 8 62 21 62 41 0
24 38 16 42 -8 2 -19 11 -24 53 -30 30 -4 55 -14 65 -26 12 -15 32 -21 94 -25
l78 -6 -6 52 c-10 88 29 107 43 21 5 -31 11 -39 36 -46 34 -10 112 -2 120 13
11 17 54 10 65 -11 6 -11 17 -20 25 -20 8 0 20 -12 27 -27 7 -15 22 -29 33
-31 11 -2 30 -8 42 -14 31 -16 11 -38 -33 -38 -19 0 -34 -2 -34 -4 0 -2 -3
-12 -6 -20 -4 -12 4 -20 29 -31 24 -10 37 -22 39 -37 4 -33 21 -28 32 9 21 71
66 43 66 -42 0 -45 3 -54 30 -73 29 -22 141 -43 200 -39 16 1 25 -3 25 -13 0
-19 -45 -26 -56 -8 -6 10 -11 9 -23 -7 -20 -25 -20 -55 -2 -55 8 0 27 -5 43
-12 46 -19 83 -20 108 -4 36 23 92 21 100 -4 8 -26 -1 -40 -26 -40 -30 0 -27
-56 5 -64 13 -3 26 -15 29 -26 3 -13 13 -20 30 -20 34 0 77 -17 77 -30 0 -6
-11 -15 -25 -20 -17 -6 -25 -17 -25 -34 0 -13 -10 -30 -22 -39 l-23 -15 23
-21 c12 -12 22 -31 22 -41 0 -19 14 -26 69 -32 27 -3 35 -16 22 -37 -7 -10
-24 -12 -74 -7 -53 6 -67 11 -72 27 -4 10 -15 19 -25 19 -25 0 -51 -130 -30
-155 15 -18 23 -18 73 -4 26 7 37 16 37 29 0 43 10 51 55 45 37 -6 43 -4 48
14 4 17 13 21 49 21 77 0 119 11 129 34 15 31 59 48 108 40 36 -6 42 -4 49 16
13 34 104 80 159 80 36 0 52 6 80 30 20 18 45 30 61 30 15 0 39 11 54 25 17
15 39 25 58 25 23 0 30 4 30 19 0 16 11 22 55 31 35 7 55 17 55 25 0 18 31 35
63 35 13 0 33 11 44 24 11 13 38 27 59 30 21 4 43 15 50 24 7 9 32 22 56 27
30 8 44 17 47 30 4 24 19 35 48 35 12 0 33 11 48 24 14 13 43 26 64 30 26 4
44 14 55 31 10 15 26 25 40 25 15 0 26 7 29 19 3 13 17 21 46 26 24 4 47 15
56 27 8 12 30 24 52 27 26 4 41 13 48 29 6 13 19 22 32 22 12 0 38 14 56 30
23 20 45 30 66 30 21 0 40 8 54 24 13 13 40 27 60 31 24 5 44 16 54 31 9 15
25 24 40 24 13 0 34 5 45 11 16 8 24 8 35 -4 13 -13 14 -33 8 -121 -4 -58 -11
-109 -16 -112 -5 -3 -9 -13 -9 -24 0 -39 108 -31 130 9 7 14 26 20 75 23 87 7
99 3 118 -41 22 -48 21 -54 -3 -69 -11 -7 -20 -21 -20 -32 0 -13 -10 -24 -25
-30 -14 -5 -28 -16 -31 -24 -3 -8 -26 -17 -54 -21 -32 -4 -54 -14 -68 -29 -15
-18 -35 -25 -86 -30 -45 -5 -69 -13 -75 -24 -5 -9 -29 -21 -53 -27 -43 -10
-43 -10 -46 -58 -3 -39 -7 -49 -26 -57 -16 -6 -25 -19 -29 -46 -4 -20 -4 -41
-1 -46 10 -16 62 -8 89 14 20 15 49 24 92 29 47 5 70 12 84 28 15 16 32 21 74
21 30 0 57 -4 60 -10 3 -5 -2 -47 -11 -92 -12 -58 -23 -89 -39 -103 -29 -26
-41 -97 -20 -115 18 -15 70 2 95 30 12 15 40 19 165 23 133 5 151 8 165 26 24
31 157 34 166 4 3 -10 10 -27 16 -39 5 -11 8 -36 6 -54 -3 -30 -7 -35 -40 -43
-21 -5 -38 -13 -38 -18 0 -19 -64 -39 -156 -48 -71 -6 -101 -13 -109 -25 -7
-9 -27 -16 -46 -16 -60 -1 -122 -18 -136 -36 -11 -15 -28 -19 -91 -20 -136 -2
-211 -14 -223 -35 -7 -13 -21 -19 -45 -19 -45 0 -74 -16 -74 -40 0 -19 7 -20
104 -20 85 0 111 4 138 19 21 13 70 24 138 31 58 7 128 20 155 30 42 15 205
35 255 32 8 -1 65 -3 126 -5 61 -2 116 -7 123 -12 8 -4 11 -19 7 -39 -8 -43 5
-58 55 -65 37 -5 44 -10 51 -36 4 -16 5 -61 1 -98 -5 -60 -9 -70 -30 -78 -12
-4 -23 -15 -23 -23 0 -19 -17 -24 -120 -32 -49 -4 -91 -12 -100 -20 -8 -8 -25
-22 -38 -32 -20 -15 -22 -23 -17 -57 4 -23 20 -56 39 -78 30 -36 33 -37 80
-31 35 5 50 12 53 25 5 19 21 23 113 35 30 3 67 15 83 26 15 11 37 18 50 16
19 -3 22 -10 25 -50 3 -41 7 -49 28 -54 25 -6 29 -17 38 -92 5 -54 11 -60 34
-39 29 26 84 22 110 -8 12 -14 28 -25 36 -25 7 0 21 -11 30 -25 9 -14 23 -25
31 -25 9 0 15 -9 15 -23 0 -12 6 -45 13 -73 13 -52 4 -115 -19 -120 -5 -1 -26
-5 -47 -9 -27 -4 -41 -13 -49 -31 -6 -13 -19 -24 -28 -24 -10 0 -23 -6 -29
-14 -15 -18 9 -25 116 -35 75 -7 84 -10 112 -40 33 -36 40 -61 16 -61 -8 0
-30 -13 -48 -30 -19 -16 -39 -30 -44 -30 -5 0 -18 -6 -28 -14 -16 -11 -17 -16
-6 -29 18 -22 142 -12 200 16 l43 21 17 -20 c9 -11 24 -23 33 -26 35 -14 37
-201 3 -221 -9 -5 -20 -19 -25 -31 -6 -17 -19 -25 -49 -30 -22 -3 -48 -14 -58
-25 -10 -10 -29 -21 -43 -24 -14 -4 -40 -21 -58 -38 -28 -27 -32 -37 -27 -63
12 -57 16 -65 38 -68 32 -4 32 -30 0 -65 -21 -23 -40 -33 -77 -38 -90 -12
-118 -36 -131 -113 -4 -23 -11 -44 -16 -48 -5 -3 -9 -21 -9 -40 0 -39 25 -66
68 -74 22 -5 26 -11 24 -30 -1 -14 -9 -28 -16 -32 -8 -4 -20 -41 -27 -80 -8
-50 -18 -78 -32 -89 -33 -27 -12 -42 54 -37 42 3 65 10 81 25 18 17 37 22 83
23 125 3 135 2 144 -24 5 -13 16 -26 24 -29 9 -3 18 -26 22 -59 4 -29 14 -57
21 -63 19 -14 6 -30 -38 -48 -21 -9 -38 -20 -38 -26 0 -14 -66 -31 -122 -31
-27 0 -48 -3 -48 -8 0 -14 -55 -30 -124 -36 -38 -3 -74 -10 -80 -16 -6 -6 -12
-41 -14 -79 l-4 -69 -48 -6 c-36 -5 -49 -11 -53 -26 -3 -13 -14 -20 -30 -20
-41 0 -77 -18 -77 -37 1 -27 32 -59 73 -77 62 -25 41 -84 -37 -106 -47 -13
-63 -32 -42 -49 7 -6 76 -11 161 -12 135 -1 154 -3 195 -24 26 -13 62 -26 82
-30 29 -6 39 -13 47 -37 6 -17 11 -39 11 -50 0 -10 11 -49 24 -87 13 -38 21
-73 17 -79 -12 -20 -111 -30 -224 -21 -134 10 -192 4 -211 -23 -16 -22 -90
-28 -109 -9 -14 14 -77 15 -77 1 0 -25 32 -70 50 -70 10 0 25 -9 33 -20 23
-33 63 -40 222 -40 169 0 165 1 165 -66 0 -27 -5 -37 -25 -46 -14 -6 -25 -20
-25 -30 0 -10 -11 -23 -24 -28 -13 -5 -27 -18 -31 -29 -3 -12 -14 -21 -23 -21
-8 0 -26 -10 -40 -22 -22 -21 -35 -23 -156 -26 -113 -3 -141 -1 -191 17 -54
19 -61 20 -89 5 -17 -8 -69 -19 -116 -25 -47 -5 -105 -18 -130 -28 -25 -11
-53 -22 -63 -25 -33 -10 -16 -46 28 -62 22 -7 45 -20 51 -29 7 -9 25 -20 41
-24 28 -8 28 -9 27 -80 -2 -62 -5 -75 -23 -87 -33 -23 -26 -41 18 -49 22 -4
52 -17 66 -31 21 -19 37 -24 82 -24 52 0 307 -62 326 -80 5 -4 2 -14 -6 -21
-7 -8 -17 -27 -21 -42 -4 -18 -13 -27 -26 -27 -13 0 -22 -9 -26 -25 -4 -16
-13 -25 -25 -25 -10 0 -26 -11 -35 -25 -9 -14 -22 -25 -29 -25 -6 0 -26 -13
-43 -30 -18 -16 -38 -30 -46 -30 -8 0 -27 -11 -42 -25 -20 -19 -38 -25 -70
-25 -23 0 -45 4 -49 9 -8 14 -65 41 -87 41 -25 0 -58 -57 -58 -101 0 -42 -11
-49 -71 -49 -36 0 -41 -3 -55 -35 -8 -19 -21 -35 -29 -35 -20 0 -19 -34 1 -64
14 -23 14 -26 -7 -45 -13 -12 -28 -21 -35 -21 -6 0 -17 -7 -24 -15 -7 -8 -23
-15 -36 -15 -14 0 -25 -8 -29 -19 -3 -11 -15 -23 -26 -26 -10 -4 -26 -20 -34
-36 -9 -16 -20 -29 -26 -29 -6 0 -31 -16 -55 -36 -36 -30 -44 -42 -44 -70 0
-41 29 -64 82 -64 34 0 39 -4 53 -37 9 -21 23 -45 31 -54 11 -12 14 -36 12
-95 l-3 -79 -175 0 c-175 0 -175 0 -214 -27 -30 -22 -50 -28 -91 -28 -39 0
-61 -6 -89 -25 -48 -33 -121 -35 -131 -5 -8 25 -24 28 -152 32 -80 3 -106 7
-121 21 -13 12 -51 22 -117 30 -73 9 -99 17 -106 30 -8 13 -24 17 -79 17 -77
0 -100 -6 -100 -26 0 -8 -4 -14 -9 -14 -5 0 -12 -14 -16 -30 -5 -22 -12 -30
-28 -30 -11 0 -28 -7 -38 -16 -29 -26 -96 -27 -196 -5 -51 12 -111 21 -133 21
-21 0 -73 11 -114 24 -51 17 -111 27 -188 32 -87 5 -118 11 -137 25 -15 12
-40 19 -68 19 -72 0 -184 21 -224 42 -22 11 -67 21 -111 25 -50 4 -79 11 -93
24 -19 17 -66 31 -148 44 -21 3 -46 15 -55 26 -9 10 -27 19 -39 19 -13 0 -23
4 -23 10 0 5 -9 14 -20 20 -17 9 -22 7 -30 -15 -5 -14 -14 -25 -20 -25 -20 0
-50 21 -50 34 0 10 -24 18 -72 26 -62 10 -77 17 -100 44 -15 17 -27 36 -28 42
0 6 -11 16 -24 22 -17 8 -26 22 -31 52 -4 23 -12 43 -18 44 -7 2 -26 8 -44 13
-26 9 -34 7 -51 -10 -19 -18 -19 -22 -6 -43 13 -20 13 -26 -1 -60 -8 -20 -24
-43 -34 -50 -10 -8 -21 -31 -24 -54 -3 -23 -8 -45 -12 -48 -3 -4 -39 -6 -78
-6 -124 2 -158 8 -168 27 -6 9 -21 17 -34 17 -16 0 -26 7 -31 23 -4 12 -11 25
-17 29 -14 9 -37 -2 -37 -17 0 -8 -4 -17 -10 -20 -15 -9 -87 14 -94 30 -3 8
-15 15 -26 15 -14 0 -20 7 -20 23 0 17 10 25 46 37 50 16 57 31 19 42 -13 3
-37 15 -54 27 -23 17 -44 21 -105 21 -71 0 -76 -1 -76 -21 0 -12 6 -27 14 -33
8 -6 18 -28 22 -49 6 -35 4 -39 -12 -35 -12 2 -20 13 -22 29 -3 26 -6 27 -75
32 -52 3 -78 0 -95 -10 -16 -10 -36 -12 -62 -8 -34 6 -39 10 -50 50 -7 24 -20
46 -29 50 -9 3 -32 12 -51 19 -33 13 -34 16 -31 56 2 33 -2 45 -18 57 -12 8
-21 20 -21 27 0 8 -13 16 -29 19 -21 4 -30 13 -33 29 -2 19 -10 23 -46 26 -29
2 -45 9 -49 20 -10 26 -35 41 -69 42 -33 0 -54 -15 -54 -41 0 -9 -7 -19 -15
-23 -22 -8 -45 4 -45 24 0 9 -9 25 -19 34 -19 17 -19 18 0 37 27 27 24 57 -11
89 -31 29 -35 51 -24 109 6 28 10 31 44 31 54 0 65 19 63 103 -2 59 -6 74 -27
96 -13 14 -26 37 -28 51 -2 19 -9 25 -28 25 -25 0 -25 -2 -34 -112 -7 -87 -12
-113 -23 -113 -8 0 -12 -4 -8 -10 8 -13 -32 -51 -49 -44 -14 6 -26 55 -26 116
0 28 -5 38 -20 43 -13 4 -23 19 -27 37 -3 16 -13 32 -22 36 -9 3 -26 16 -38
29 -13 14 -34 23 -51 23 -31 0 -50 24 -30 37 7 3 26 7 43 7 27 1 30 4 30 31
l0 30 -125 3 c-151 3 -173 -4 -196 -64 -23 -61 -44 -58 -44 5 0 39 5 56 25 77
19 21 25 38 25 75 0 41 -4 51 -25 65 -15 10 -25 26 -25 40 0 13 -4 24 -9 24
-18 0 -41 32 -41 56 0 29 20 32 27 4 3 -11 16 -23 29 -26 13 -3 24 -12 24 -20
0 -24 39 -38 66 -23 13 7 24 18 24 25 0 17 28 26 37 11 9 -14 10 -19 12 -52 1
-30 27 -34 36 -5 5 14 16 20 41 22 19 1 42 2 52 2 14 1 17 -8 17 -54 0 -49 2
-55 22 -58 40 -6 59 84 26 120 -13 14 -14 21 -5 30 7 7 12 25 12 41 0 28 -1
29 -36 24 -20 -4 -57 -1 -81 6 l-44 11 7 46 c3 25 13 50 21 57 23 18 8 41 -31
48 -24 5 -36 13 -40 30 -5 18 -15 24 -55 29 -27 3 -54 13 -61 21 -7 8 -29 15
-49 15 -20 0 -47 9 -60 19 -23 18 -27 18 -58 3 -36 -17 -42 -15 -48 17 -3 15
2 22 20 27 18 4 25 15 30 45 5 30 11 39 26 39 29 0 45 42 29 79 -6 16 -9 35
-5 40 8 13 58 14 71 2 5 -6 30 -4 64 5 40 11 82 14 153 10 94 -5 98 -4 113 19
10 15 29 26 54 30 25 4 44 15 55 31 12 19 21 23 43 18 15 -4 36 -12 47 -19 25
-15 74 -25 92 -18 21 8 16 51 -8 58 -15 5 -19 12 -15 28 3 12 6 52 6 90 0 57
3 67 18 67 14 0 17 -10 18 -61 1 -64 12 -86 38 -76 12 5 16 22 16 76 0 54 3
70 16 75 34 13 46 -13 38 -81 -8 -76 2 -93 56 -93 20 0 51 -7 69 -16 17 -8 59
-16 93 -17 56 -2 63 0 74 21 l12 24 16 -33 c9 -17 16 -38 16 -46 0 -9 17 -13
65 -13 53 0 68 -4 85 -22 11 -12 20 -25 20 -30 0 -4 9 -8 19 -8 20 0 25 18 33
115 3 31 31 46 49 28 12 -12 -10 -153 -22 -153 -5 0 -9 -7 -9 -15 0 -18 34
-27 86 -23 l39 3 0 70 0 70 53 3 c48 3 53 1 62 -23 6 -15 10 -46 10 -70 0 -52
8 -75 25 -75 7 0 18 -7 25 -15 10 -13 9 -15 -12 -15 -28 0 -48 -17 -48 -41 0
-10 -8 -25 -17 -34 -16 -16 -15 -18 4 -34 12 -9 23 -25 25 -36 2 -11 12 -21
23 -24 11 -2 35 -18 53 -37 33 -34 64 -50 142 -75 34 -10 46 -20 48 -36 4 -29
47 -32 61 -5 11 21 4 35 -25 50 -39 20 -36 92 3 78 13 -5 23 15 23 50 0 21 5
24 34 24 47 0 66 -9 66 -30 0 -18 -44 -40 -81 -40 -12 0 -19 -7 -19 -20 0 -11
4 -20 10 -20 5 0 12 -17 15 -37 11 -65 15 -71 45 -78 19 -4 30 -14 34 -31 4
-13 13 -24 21 -24 20 0 29 -20 16 -33 -7 -7 -26 -17 -44 -23 -28 -9 -33 -16
-40 -60 -4 -27 -10 -79 -12 -116 l-4 -68 30 0 c19 0 29 5 29 15 0 19 75 69 90
60 7 -4 10 -21 7 -38 -5 -39 28 -118 54 -124 10 -3 21 -14 24 -24 8 -23 33
-25 41 -4 4 8 16 15 29 15 29 0 35 -21 35 -122 l0 -76 43 -7 c67 -11 108 -27
97 -40 -13 -16 12 -59 36 -63 11 -2 27 4 34 14 12 14 12 20 -3 46 -17 29 -16
30 5 49 29 23 30 23 75 -1 50 -26 75 -25 103 5 18 19 26 22 31 13 6 -9 46 -15
121 -18 96 -4 118 -8 145 -27 17 -13 40 -23 51 -23 11 0 26 -10 34 -21 12 -19
22 -21 95 -20 46 1 97 8 117 16 19 8 46 15 58 15 41 0 98 21 98 35 0 8 16 21
35 29 24 10 35 22 35 35 0 12 7 21 15 21 8 0 15 5 15 11 0 7 11 9 33 4 57 -12
142 -5 157 14 3 3 14 11 24 16 18 10 49 89 39 99 -2 2 0 7 6 11 6 3 11 0 11
-8 0 -36 82 -37 112 -2 12 14 30 25 40 25 18 0 47 13 78 36 8 6 35 17 59 24
34 11 47 21 57 46 14 33 61 64 96 64 10 0 18 4 18 10 0 12 53 40 75 40 9 0 25
9 37 20 12 11 36 20 54 20 60 0 95 12 106 36 6 13 19 24 29 24 10 0 19 10 23
24 3 14 15 26 26 28 12 2 21 8 21 13 2 20 20 45 33 45 8 0 22 23 31 55 10 31
24 55 31 55 8 0 14 7 14 15 0 17 3 18 67 35 33 8 44 17 49 35 4 16 13 25 26
25 12 0 23 11 29 30 6 17 17 30 24 30 22 0 35 59 35 164 0 82 4 108 20 139 11
20 20 43 20 49 0 7 13 20 28 29 27 15 29 23 37 95 4 44 7 86 7 94 -1 33 -24
104 -42 127 -10 13 -21 42 -25 65 -5 27 -13 42 -25 45 -10 3 -21 15 -24 27 -3
13 -17 28 -32 35 -25 11 -26 14 -22 73 4 49 9 64 26 76 12 8 22 22 22 31 0 9
14 28 32 43 l33 27 -3 89 c-2 70 1 91 12 95 15 6 46 62 46 82 0 7 11 20 25 29
14 9 25 23 25 31 0 8 9 19 20 25 25 13 25 31 1 52 -16 14 -19 31 -19 144 0
123 -14 210 -41 253 -13 20 15 40 53 41 20 0 39 11 62 36 34 35 34 36 34 135
0 113 -17 174 -47 165 -56 -15 -91 -17 -148 -6 -50 9 -65 17 -74 36 -7 16 -19
24 -35 24 -27 0 -36 16 -36 66 0 19 -4 34 -10 34 -12 0 -40 65 -40 91 0 11 -7
19 -15 19 -9 0 -20 11 -25 24 -5 14 -18 30 -29 35 -11 6 -22 20 -26 30 -3 10
-17 22 -30 25 -13 3 -27 15 -30 26 -3 11 -18 23 -33 27 -14 3 -37 16 -51 29
-13 12 -37 25 -53 28 -27 5 -29 8 -26 48 3 39 6 43 38 52 38 11 54 26 41 39
-4 4 -46 10 -92 12 -77 4 -85 6 -99 28 -9 17 -26 27 -50 31 -20 3 -45 15 -55
26 -14 15 -31 20 -70 20 -28 0 -56 -5 -62 -11 -8 -8 -15 -6 -25 10 -10 16 -23
21 -53 21 -47 0 -61 -8 -66 -35 -3 -14 -13 -21 -34 -23 -44 -3 -108 -24 -127
-40 -25 -21 -42 -10 -58 37 -7 23 -21 43 -32 47 -11 3 -23 17 -28 30 -12 31
-38 31 -50 -2 -9 -23 -14 -25 -62 -22 -39 2 -54 7 -56 19 -5 26 27 51 60 47
24 -4 32 0 44 23 8 15 14 35 14 44 0 10 16 19 45 27 61 16 62 43 3 53 -24 4
-50 12 -58 19 -27 20 -59 36 -74 36 -8 0 -21 12 -28 27 -16 33 -32 37 -105 28
-41 -5 -57 -11 -60 -25 -7 -27 -76 -44 -118 -29 -18 7 -36 21 -38 31 -4 15
-15 18 -69 17 -34 -1 -117 3 -183 8 -138 11 -182 28 -187 70 -2 22 -10 30 -35
38 -21 6 -33 16 -33 26 0 21 -18 35 -30 23 -5 -5 -13 -38 -17 -73 -4 -35 -13
-66 -20 -68 -16 -6 -44 56 -42 93 1 16 1 35 0 42 -2 21 -31 13 -42 -12 -8 -17
-22 -25 -52 -29 -51 -7 -64 -26 -35 -50 29 -24 14 -49 -35 -60 -22 -5 -39 -16
-42 -28 -4 -10 -11 -19 -16 -19 -6 0 -21 -12 -35 -27 -28 -31 -85 -54 -105
-42 -13 7 -93 13 -131 10 -10 0 -17 -7 -15 -13 1 -7 -8 -14 -20 -16 -13 -2
-23 0 -23 3 0 4 10 15 23 26 16 14 17 17 5 13 -10 -3 -18 -2 -18 4 0 5 -27 18
-60 28 -33 10 -60 21 -60 26 0 19 -19 5 -30 -23 -17 -40 -1 -55 65 -62 28 -3
50 -6 51 -6 0 -1 0 -16 -1 -34 -2 -45 -11 -57 -40 -57 -24 0 -59 -36 -49 -52
9 -14 -6 -48 -21 -48 -24 0 -39 -39 -26 -67 6 -13 11 -42 11 -64 0 -32 4 -41
25 -51 33 -15 32 -34 -2 -41 -16 -3 -37 -8 -48 -12 -18 -5 -22 1 -34 54 -7 34
-17 61 -22 61 -5 0 -22 13 -39 30 -47 46 -39 86 20 92 24 2 36 9 38 21 2 10
-3 17 -13 17 -20 0 -33 35 -37 102 -3 53 -3 53 -38 56 -50 3 -63 -8 -50 -43 8
-21 7 -31 -4 -44 -7 -9 -17 -26 -20 -38 -9 -29 -41 -30 -58 -3 -26 42 -38 23
-38 -60 0 -62 3 -82 15 -86 8 -4 15 -15 15 -25 0 -17 -8 -19 -69 -19 -68 0
-69 -1 -80 -30 -10 -31 -18 -34 -70 -24 -25 5 -31 11 -29 28 2 16 13 23 46 30
31 7 42 14 42 27 0 17 -9 19 -99 19 -90 0 -100 -2 -106 -19 -4 -14 -19 -22
-49 -26 -44 -7 -73 2 -109 33 -14 13 -46 16 -150 17 -73 1 -138 5 -144 8 -16
10 -63 -13 -63 -30 0 -8 -5 -11 -10 -8 -6 4 -8 11 -4 16 3 5 -11 16 -30 24
-20 9 -36 22 -36 29 0 8 -10 18 -22 21 -13 4 -30 16 -39 27 -13 16 -22 19 -48
13 -18 -4 -35 -13 -38 -20 -2 -8 -19 -17 -36 -21 -18 -3 -45 -17 -60 -30 -52
-43 -145 -21 -103 24 9 10 16 24 16 30 0 10 59 32 86 32 7 0 15 11 18 25 5 18
13 25 32 25 14 0 33 4 42 9 11 5 36 3 67 -5 28 -7 58 -11 68 -8 28 8 20 48
-17 88 -34 35 -37 36 -106 36 -53 0 -71 3 -68 13 3 7 32 14 78 17 69 5 75 7
80 30 7 29 37 39 46 16 3 -9 10 -13 15 -10 5 3 6 -9 3 -26 -5 -25 -3 -30 12
-30 24 -1 47 -18 63 -48 9 -17 19 -22 39 -20 32 4 40 31 38 130 -2 73 -2 73
-34 82 -20 6 -32 17 -34 30 -2 16 -15 23 -53 32 -27 6 -49 16 -48 22 2 6 -11
19 -27 27 -28 15 -30 19 -24 53 4 20 8 39 10 40 1 2 21 6 43 9 39 5 41 4 41
-19 0 -14 7 -31 16 -38 12 -11 18 -11 31 3 21 21 10 67 -17 67 -30 0 -26 36 5
44 18 5 25 13 25 31 0 20 5 25 24 25 34 0 56 10 56 25 0 22 -69 37 -71 15 -1
-5 -2 -16 -3 -22 0 -7 -14 -15 -31 -18 -21 -4 -31 -11 -33 -28 -7 -47 -42 -8
-42 47 l0 31 -107 1 c-122 1 -203 10 -206 23 -1 4 18 16 43 25 32 12 46 23 48
39 3 19 9 22 55 22 45 0 54 -3 62 -22 19 -42 105 -33 105 11 0 9 13 22 29 28
19 7 37 26 50 52 24 47 62 56 81 21 23 -43 41 -22 99 115 29 69 30 70 70 73
35 3 41 6 41 27 0 17 8 26 30 34 17 5 30 16 30 24 0 19 22 27 71 27 26 0 42 5
45 15 8 20 -13 45 -38 45 -13 0 -18 6 -16 17 2 12 18 21 50 26 37 7 48 13 50
30 3 20 11 23 82 28 87 7 96 14 96 72 0 27 4 37 15 37 21 0 82 60 86 85 3 13
14 21 32 23 16 2 27 9 27 18 0 26 31 29 50 4 15 -21 20 -22 34 -11 18 15 21
47 5 56 -6 4 9 27 38 56 l48 50 59 -5 c32 -2 63 -9 68 -14z m-504 -186 c39
-40 43 -76 9 -76 -13 0 -32 9 -41 19 -10 11 -33 27 -52 36 -40 19 -43 32 -11
45 40 16 61 10 95 -24z m-550 -483 c7 -7 10 -13 6 -13 -5 0 -3 -5 4 -12 17
-17 15 -38 -3 -38 -8 0 -15 -4 -15 -10 0 -5 -18 -10 -40 -10 -44 0 -50 13 -29
67 17 44 43 50 77 16z m-1018 -45 c0 -10 -7 -18 -15 -18 -16 0 -19 17 -9 45 5
13 8 14 15 3 5 -7 9 -21 9 -30z m-117 -3 c4 -8 2 -17 -3 -20 -6 -4 -10 3 -10
14 0 25 6 27 13 6z m997 -70 c0 -16 -35 -20 -64 -9 -29 11 -16 24 24 24 29 0
40 -4 40 -15z m-990 -45 c0 -5 -7 -10 -15 -10 -8 0 -15 5 -15 10 0 6 7 10 15
10 8 0 15 -4 15 -10z m-52 -57 c2 -8 -5 -13 -17 -13 -12 0 -21 6 -21 16 0 18
31 15 38 -3z m-104 -77 c-9 -45 -22 -54 -89 -58 -57 -3 -60 -2 -63 21 -2 13
-12 26 -23 28 -25 7 -22 46 4 51 12 3 17 -3 17 -22 0 -26 13 -32 44 -20 8 3
13 11 10 18 -3 9 10 16 38 23 55 12 71 1 62 -41z m-204 -91 c5 -14 14 -25 20
-25 5 0 10 -13 10 -29 0 -17 5 -33 11 -37 7 -4 -1 -14 -20 -26 -40 -26 -43
-64 -5 -78 35 -14 25 -34 -19 -38 -20 -2 -37 -6 -38 -10 0 -4 -2 -15 -4 -24
-2 -10 4 -22 12 -27 10 -5 13 -15 8 -30 -7 -24 -33 -28 -41 -6 -3 8 -16 17
-27 21 -36 11 -46 33 -31 63 8 14 14 43 14 64 0 30 5 39 24 47 13 4 26 19 29
33 4 13 18 29 32 35 28 13 24 42 -6 42 -14 0 -19 7 -19 25 0 18 5 25 20 25 13
0 24 -10 30 -25z m140 -50 c0 -8 -7 -15 -15 -15 -8 0 -15 7 -15 15 0 8 7 15
15 15 8 0 15 -7 15 -15z m-363 -33 c7 -31 -7 -56 -35 -60 -12 -2 -22 -12 -24
-25 -2 -14 -11 -23 -25 -25 -21 -3 -23 0 -23 51 0 54 1 56 38 74 44 23 60 19
69 -15z m1380 -19 c3 -6 -11 -19 -29 -29 -18 -9 -37 -23 -41 -30 -8 -14 -82
-20 -75 -6 2 4 12 24 21 45 17 38 18 38 69 35 28 -2 53 -8 55 -15z m83 -9 c0
-10 -7 -14 -22 -12 -32 5 -35 28 -4 28 17 0 26 -5 26 -16z m-1462 -163 c3 -8
-1 -12 -9 -9 -7 2 -15 10 -17 17 -3 8 1 12 9 9 7 -2 15 -10 17 -17z m1227
-235 c35 -30 38 -35 26 -50 -10 -12 -26 -16 -55 -14 -38 3 -41 5 -44 36 -7 71
13 78 73 28z m3235 -52 c6 -14 10 -34 10 -45 0 -22 -26 -37 -40 -23 -10 10
-20 81 -12 89 13 13 33 3 42 -21z m-4430 -36 c0 -13 -5 -30 -10 -38 -7 -11
-10 -5 -10 23 0 20 5 37 10 37 6 0 10 -10 10 -22z m3303 -33 c47 -20 51 -28
22 -53 -14 -12 -25 -27 -25 -33 0 -5 -12 -9 -27 -7 -23 2 -29 10 -37 42 -7 33
-6 41 10 53 22 16 15 16 57 -2z m-2196 -21 c8 -20 -8 -36 -26 -25 -15 10 -8
41 9 41 6 0 13 -7 17 -16z m2368 7 c8 -14 -30 -32 -49 -25 -30 11 -16 34 20
34 13 0 25 -4 29 -9z m685 -71 c0 -16 -5 -30 -11 -30 -5 0 -7 -4 -4 -10 3 -6
-1 -7 -9 -4 -9 3 -16 10 -16 15 0 5 -12 9 -27 9 -37 0 -57 14 -50 34 5 12 20
16 62 16 54 0 55 0 55 -30z m-4210 10 c0 -5 -4 -10 -10 -10 -5 0 -10 5 -10 10
0 6 5 10 10 10 6 0 10 -4 10 -10z m1169 -38 c6 -11 6 -24 0 -33 -13 -21 -11
-60 5 -78 16 -18 25 -65 14 -68 -5 -2 -8 0 -8 5 0 4 -26 9 -57 12 -55 5 -58 7
-63 35 -4 21 -12 31 -30 35 -34 8 -32 34 3 38 15 2 27 9 27 17 0 13 64 53 87
54 7 1 17 -7 22 -17z m2441 -18 c0 -8 -9 -14 -20 -14 -19 0 -27 19 -14 33 10
9 34 -4 34 -19z m-677 -7 c31 -26 38 -83 12 -93 -21 -9 -45 14 -45 42 0 14 -6
24 -14 24 -16 0 -29 27 -20 41 9 16 40 10 67 -14z m946 -41 c13 -13 11 -16
-12 -25 -18 -7 -27 -19 -29 -38 -5 -44 -31 -43 -118 2 -35 19 -41 71 -8 78 42
10 151 -2 167 -17z m-379 -1 c0 -8 -6 -15 -14 -15 -17 0 -28 14 -19 24 12 12
33 6 33 -9z m1483 -5 c8 -31 -18 -46 -48 -26 -38 25 -31 46 16 46 18 0 28 -6
32 -20z m-5035 -56 c-4 -24 -24 -29 -32 -8 -8 20 13 49 27 35 5 -5 7 -17 5
-27z m1690 8 c4 -24 -12 -30 -24 -10 -4 6 -2 14 5 16 11 4 11 6 0 14 -11 8
-11 9 1 5 8 -2 16 -13 18 -25z m249 6 c2 -25 17 -36 57 -45 16 -3 31 -14 33
-24 3 -10 18 -22 34 -28 21 -7 29 -17 29 -33 0 -43 -12 -66 -36 -72 -13 -4
-28 -15 -34 -26 -8 -16 -6 -21 12 -31 13 -7 24 -12 26 -11 21 15 31 -39 12
-68 -9 -13 -13 -12 -29 8 -25 29 -59 29 -71 -2 -5 -13 -18 -27 -29 -31 -12 -3
-21 -17 -23 -33 -2 -19 -9 -27 -23 -27 -26 0 -35 52 -11 61 25 10 18 31 -15
44 -25 11 -40 10 -86 -3 -51 -14 -59 -14 -80 0 -32 21 -49 11 -56 -34 -5 -27
-16 -46 -37 -61 -16 -13 -30 -29 -30 -36 0 -7 -10 -20 -22 -28 -30 -20 -18
-68 17 -68 14 0 25 -6 25 -13 0 -16 63 -37 109 -37 29 0 37 -11 32 -42 -2 -16
161 -11 171 5 3 6 9 30 13 54 4 27 11 43 20 43 21 0 23 -9 26 -85 2 -62 5 -71
23 -75 17 -5 23 -18 30 -63 7 -45 13 -57 28 -57 10 0 18 -6 18 -14 0 -27 -21
-28 -45 -2 -13 14 -28 26 -33 26 -5 0 -12 21 -15 46 -2 25 -10 51 -16 57 -7 7
-44 12 -84 13 -150 1 -150 1 -169 35 -17 29 -20 30 -63 23 l-45 -6 0 31 c0 25
-4 31 -21 31 -12 0 -27 7 -34 16 -18 26 -63 11 -71 -24 -11 -45 -15 -45 -36
-3 -11 23 -26 41 -33 41 -7 0 -25 3 -41 6 -27 5 -30 3 -43 -41 -7 -25 -22 -50
-32 -55 -13 -8 -19 -24 -21 -62 -2 -42 -7 -54 -22 -56 -22 -5 -35 7 -41 38 -2
13 -10 27 -17 31 -15 9 -71 -1 -80 -14 -10 -16 -20 -96 -13 -107 10 -17 -4
-47 -25 -53 -13 -3 -20 -14 -20 -29 0 -29 -9 -42 -37 -57 -41 -21 -27 -98 20
-114 9 -4 17 -2 17 4 0 5 11 2 25 -7 21 -14 25 -24 25 -65 0 -35 4 -51 15 -56
22 -8 42 -50 50 -105 5 -33 12 -48 26 -51 28 -8 24 -45 -6 -57 -19 -7 -25 -17
-25 -39 0 -16 7 -36 15 -44 8 -8 11 -17 8 -21 -4 -3 26 -6 65 -6 63 0 72 2 72
18 0 25 7 31 30 25 10 -3 20 -15 22 -27 2 -13 11 -22 26 -24 16 -3 22 -10 22
-28 0 -13 4 -24 10 -24 7 0 20 -41 25 -80 2 -16 18 -28 43 -33 23 -5 31 -13
36 -38 11 -57 8 -69 -18 -69 -38 0 -56 10 -72 41 -8 16 -22 29 -30 29 -9 0
-27 9 -41 20 -14 11 -32 20 -39 20 -8 0 -14 10 -14 24 0 14 -10 30 -25 40 -14
9 -25 23 -25 31 0 9 -20 18 -55 25 -30 6 -53 16 -50 21 4 5 -5 9 -19 9 -40 0
-76 18 -85 43 -12 31 -34 39 -67 27 -26 -10 -94 5 -94 21 0 4 18 16 40 26 22
10 40 23 40 30 0 19 35 33 84 33 l46 0 0 49 c0 46 -12 69 -35 66 -37 -5 -65
-20 -70 -35 -3 -10 -13 -21 -21 -24 -47 -18 -77 58 -43 106 10 15 19 34 19 42
0 8 5 18 10 21 20 12 -1 25 -40 25 -37 0 -40 -2 -51 -41 -7 -23 -19 -43 -27
-46 -7 -3 -18 -16 -23 -29 -11 -30 -49 -33 -49 -4 0 13 -10 24 -25 30 -25 10
-30 26 -19 67 6 21 7 20 33 -9 24 -27 30 -29 49 -19 13 7 22 21 22 36 0 15 7
26 20 30 11 3 20 15 20 25 0 11 10 26 23 35 13 8 29 31 37 50 7 19 21 37 30
40 36 12 35 226 -1 245 -12 7 -19 26 -23 67 -8 84 -7 83 -35 88 -14 3 -46 10
-72 16 -36 8 -51 7 -75 -6 -16 -8 -34 -15 -41 -15 -7 0 -16 -8 -22 -17 -8 -16
-11 -15 -20 10 -6 16 -11 60 -11 99 0 60 3 71 19 75 11 3 26 24 36 51 22 57
19 54 38 46 13 -5 16 -18 12 -75 -2 -38 0 -71 5 -74 5 -3 32 -9 60 -12 36 -4
51 -11 55 -24 7 -20 30 -25 40 -9 13 21 42 7 78 -40 28 -38 37 -59 37 -89 0
-22 3 -46 6 -55 7 -18 39 -22 49 -6 3 6 19 10 36 10 16 0 29 -4 29 -10 0 -5 4
-10 9 -10 5 0 12 18 16 40 4 26 14 44 28 52 12 6 27 17 32 24 6 7 24 14 40 16
29 3 30 4 27 53 -1 27 -6 53 -11 58 -15 15 -51 -3 -51 -24 0 -29 -44 -25 -58
5 -9 21 -16 24 -50 19 -35 -5 -42 -2 -53 18 -7 13 -20 30 -31 37 -10 7 -18 22
-18 32 0 12 -10 21 -29 25 -25 5 -30 12 -36 51 -3 25 -13 48 -21 51 -14 5 -18
41 -8 79 3 11 18 28 34 37 25 15 31 15 64 2 40 -17 46 -39 16 -55 -17 -9 -20
-21 -20 -81 0 -65 1 -70 26 -79 33 -13 94 -13 94 0 0 6 11 20 25 32 14 12 25
29 25 39 0 23 30 33 48 15 21 -20 4 -79 -23 -85 -28 -5 -45 -21 -45 -42 0 -17
9 -19 100 -19 61 0 100 -4 100 -10 0 -17 44 -80 56 -80 6 0 17 7 24 15 7 8 21
15 31 15 14 0 21 9 26 31 3 19 14 34 25 36 22 6 25 53 3 53 -24 0 -19 50 5 51
11 1 25 3 30 4 6 1 15 3 20 4 15 2 12 30 -5 47 -9 9 -15 34 -15 60 0 41 2 45
23 42 14 -2 23 -11 25 -25 3 -21 9 -23 59 -23 47 0 56 3 60 20 9 34 27 17 37
-33 10 -51 26 -62 82 -55 23 2 31 10 39 36 5 17 15 32 22 32 7 0 13 8 13 19 0
23 -26 31 -104 31 l-59 0 7 38 c3 20 6 45 6 54 0 19 18 25 80 27 40 1 46 -2
47 -21z m368 -68 c0 -21 -5 -26 -32 -28 -29 -3 -33 0 -33 21 0 31 9 39 40 35
19 -2 25 -9 25 -28z m2352 -35 c20 -14 20 -16 6 -60 -14 -41 -18 -45 -47 -45
-62 0 -74 30 -34 83 33 41 43 44 75 22z m-1110 -21 c16 -22 17 -94 1 -145 -11
-37 -13 -39 -53 -39 -34 0 -44 4 -48 20 -7 25 -46 27 -48 3 -1 -10 -2 -68 -3
-130 -2 -109 -1 -112 21 -118 20 -5 23 -12 23 -50 0 -43 -1 -45 -29 -45 -31 0
-71 42 -71 74 0 24 -46 21 -53 -4 -4 -15 -14 -20 -41 -20 -20 0 -36 2 -36 5 0
13 40 78 54 88 9 7 18 23 21 37 2 14 14 33 25 42 12 9 21 21 22 25 0 4 3 13 5
20 12 31 -2 48 -45 51 -34 3 -42 7 -42 23 0 15 7 19 36 19 31 0 37 4 47 30 7
17 21 33 33 36 16 4 23 16 28 46 4 23 9 45 13 51 10 16 125 1 140 -19z m-1313
-20 c16 -41 2 -70 -28 -58 -18 7 -20 27 -6 55 13 23 26 24 34 3z m496 -29 c0
-18 -5 -25 -20 -25 -14 0 -20 -7 -20 -23 0 -13 -9 -32 -21 -43 -20 -18 -21
-18 -35 1 -8 10 -14 24 -14 30 0 16 22 35 40 35 9 0 22 11 28 25 6 14 18 25
27 25 9 0 15 -9 15 -25z m1171 9 c9 -11 8 -18 -2 -30 -13 -15 -35 -15 -85 1
-19 6 -24 1 -34 -29 -12 -38 -38 -48 -58 -23 -13 16 -19 68 -9 84 11 17 173
15 188 -3z m4298 -9 c2 -11 12 -32 22 -47 22 -31 26 -88 5 -88 -7 0 -16 9 -19
20 -3 11 -13 23 -24 27 -10 3 -21 11 -25 17 -10 14 -10 80 -1 90 13 12 38 1
42 -19z m-4220 -3 c9 -17 8 -109 -2 -119 -12 -11 -26 9 -32 45 -3 20 -10 44
-14 52 -9 16 6 39 26 40 7 0 17 -8 22 -18z m-2615 -38 c9 -22 -1 -34 -30 -34
-28 0 -30 7 -7 32 20 22 29 23 37 2z m2900 -42 c10 -37 3 -62 -19 -62 -21 0
-29 23 -21 66 8 42 27 40 40 -4z m3818 11 c5 -44 -3 -133 -12 -133 -10 0 -30
80 -30 124 0 29 4 36 19 36 14 0 21 -8 23 -27z m-5526 -17 c1 -1 5 -22 8 -48
7 -47 6 -48 -18 -48 -19 0 -27 -7 -32 -25 -8 -31 -31 -32 -84 -5 -22 11 -57
20 -78 20 -45 0 -46 -3 -60 -127 -11 -89 -22 -92 -34 -8 -2 13 -13 22 -33 25
-28 5 -30 8 -28 45 3 45 23 65 65 65 20 0 32 7 39 24 12 27 44 36 120 36 45 0
49 2 49 24 0 27 20 36 60 28 14 -3 26 -5 26 -6z m457 -11 c4 -8 1 -18 -6 -22
-12 -7 -16 -9 -36 -12 -5 0 -11 -14 -14 -31 -5 -24 -12 -30 -32 -30 -23 0 -25
4 -25 43 0 24 5 48 12 55 17 17 95 15 101 -3z m1412 -6 c8 -25 -7 -44 -29 -36
-19 8 -21 43 -3 50 21 9 26 7 32 -14z m553 -67 c-4 -22 -36 -28 -44 -7 -4 9
-1 27 6 41 13 23 13 24 27 4 8 -11 13 -28 11 -38z m546 5 c-3 -132 -3 -137
-24 -137 -24 0 -35 35 -33 104 1 49 14 68 43 63 9 -1 15 -13 14 -30z m-941 -2
c-3 -8 -9 -15 -14 -15 -10 0 -12 24 -3 33 11 11 24 -3 17 -18z m-3118 5 c3 -5
-3 -10 -15 -10 -12 0 -18 5 -15 10 3 6 10 10 15 10 5 0 12 -4 15 -10z m2145
-60 c0 -25 -4 -30 -25 -30 -13 0 -28 -7 -33 -16 -5 -9 -18 -14 -28 -12 -15 3
-18 10 -16 33 4 37 26 55 69 55 30 0 33 -3 33 -30z m-769 -7 c14 -37 4 -73
-21 -73 -16 0 -20 7 -20 31 0 29 15 69 26 69 2 0 9 -12 15 -27z m1900 14 c-1
-12 -15 -9 -19 4 -3 6 1 10 8 8 6 -3 11 -8 11 -12z m-591 -62 c0 -25 -23 -35
-35 -15 -10 16 2 40 20 40 9 0 15 -9 15 -25z m767 10 c5 -16 -14 -38 -26 -31
-18 12 -13 48 6 44 9 -2 18 -7 20 -13z m-3110 -51 c7 -19 -20 -49 -36 -40 -6
4 -11 18 -11 32 0 17 5 24 20 24 11 0 23 -7 27 -16z m3533 -4 c11 -7 15 -25
14 -67 -1 -46 -6 -60 -23 -71 -11 -8 -21 -23 -21 -33 0 -13 -7 -19 -24 -19
-20 0 -25 6 -31 39 -4 24 -2 48 5 61 6 12 10 33 9 48 -2 15 0 33 4 40 10 14
46 16 67 2z m-2890 -27 c0 -29 -2 -29 -19 5 -10 18 -9 22 4 22 10 0 15 -9 15
-27z m1928 -49 c14 -53 3 -77 -32 -72 -16 2 -22 11 -24 37 -9 88 35 115 56 35z
m422 15 c0 -10 -4 -19 -10 -19 -5 0 -10 12 -10 26 0 14 4 23 10 19 6 -3 10
-15 10 -26z m-5064 -14 c9 -19 20 -35 25 -35 13 0 11 -27 -2 -35 -5 -4 -21 -4
-33 -1 -17 4 -25 15 -29 41 -11 68 12 86 39 30z m8449 -8 c9 -44 2 -107 -10
-107 -12 0 -15 140 -4 140 5 0 11 -15 14 -33z m-5011 -23 c3 -9 6 -31 6 -50 0
-29 -3 -34 -24 -34 -17 0 -29 -9 -38 -27 -18 -38 -41 -35 -54 7 -15 44 -9 58
24 62 18 2 31 12 40 31 15 30 37 36 46 11z m1061 4 c24 -11 34 -28 16 -28 -5
0 -12 -13 -16 -29 -10 -47 -28 -56 -76 -41 -48 16 -54 24 -34 43 8 9 19 27 25
41 11 29 41 34 85 14z m-1999 -13 c9 -23 -15 -48 -32 -34 -17 14 -18 36 -1 42
21 9 27 7 33 -8z m-638 -51 c2 -11 15 -25 32 -31 17 -6 30 -18 30 -27 0 -10
14 -17 46 -22 33 -5 48 -12 51 -25 5 -18 72 -59 97 -59 8 0 21 -19 28 -42 10
-31 23 -48 46 -59 37 -19 28 -24 -56 -28 -41 -2 -53 1 -58 14 -4 9 -17 21 -30
26 -16 5 -24 17 -24 31 0 18 -11 28 -47 45 -27 12 -63 25 -81 28 -30 6 -33 4
-43 -24 -12 -35 -24 -38 -50 -15 -17 15 -17 17 7 42 23 26 33 49 15 38 -14 -9
-22 117 -8 126 20 13 42 4 45 -18z m1422 11 c10 -12 10 -21 0 -45 -7 -16 -18
-30 -25 -30 -16 0 -39 55 -31 75 7 19 40 19 56 0z m1674 -11 c9 -23 -3 -56
-17 -51 -22 7 -21 67 2 67 5 0 12 -7 15 -16z m272 5 c3 -6 1 -16 -5 -22 -9 -9
-14 -8 -21 3 -9 15 -4 30 10 30 5 0 12 -5 16 -11z m501 -6 c3 -10 15 -29 27
-41 l21 -24 -25 -20 c-25 -20 -47 -20 -102 1 -24 9 -28 16 -28 49 0 21 3 42 7
45 3 4 26 7 50 7 33 0 45 -4 50 -17z m-5785 -67 c6 -49 -5 -81 -27 -81 -24 0
-34 38 -22 86 11 47 43 44 49 -5z m3622 34 c34 -13 33 -36 -5 -71 -23 -22 -41
-29 -70 -29 l-39 0 0 55 0 55 44 0 c25 0 56 -4 70 -10z m535 -14 c9 -10 9 -20
0 -40 -16 -33 -37 -33 -49 0 -17 42 22 73 49 40z m249 -16 c15 -16 32 -30 40
-30 7 0 20 -17 28 -37 18 -42 7 -83 -23 -83 -14 -1 -12 -4 7 -15 33 -19 66
-19 74 0 3 8 17 20 31 27 14 6 25 17 25 24 0 7 5 24 11 38 11 23 13 23 28 9
10 -11 18 -41 21 -87 4 -64 7 -71 27 -74 21 -3 22 1 25 65 3 61 5 68 24 71 16
2 23 -4 28 -22 3 -15 11 -26 16 -26 15 0 12 -31 -5 -50 -12 -13 -13 -26 -7
-56 7 -36 11 -40 51 -50 31 -7 47 -17 52 -32 5 -13 17 -22 29 -22 12 0 24 -9
30 -24 5 -15 20 -27 40 -31 26 -6 80 -58 80 -78 0 -9 72 -77 81 -77 5 0 12
-14 17 -32 8 -33 29 -45 79 -47 16 -1 24 6 29 24 7 29 73 68 93 56 21 -14 9
-56 -17 -59 -13 -2 -27 -14 -32 -27 -5 -13 -19 -25 -32 -27 -17 -2 -24 -11
-26 -30 -2 -16 -8 -28 -13 -28 -5 0 -9 -9 -9 -19 0 -21 19 -31 56 -31 31 0 41
-24 24 -55 -9 -18 -11 -51 -7 -118 7 -107 13 -127 35 -127 30 0 -2 -19 -38
-22 -35 -3 -35 -3 -38 -55 -2 -37 -8 -56 -21 -65 -23 -17 -41 -51 -41 -78 0
-13 -9 -24 -25 -30 -22 -9 -30 -20 -26 -42 0 -5 -10 -8 -24 -8 -18 0 -26 -7
-31 -25 -3 -14 -12 -25 -20 -25 -7 0 -19 -9 -27 -20 -18 -26 -66 -50 -100 -50
-16 0 -36 -10 -49 -25 -12 -14 -27 -25 -34 -25 -7 0 -22 -9 -33 -21 -16 -17
-26 -20 -59 -14 -31 5 -41 3 -46 -10 -5 -14 -26 -16 -153 -14 -187 2 -259 11
-287 38 -12 12 -35 21 -50 21 -15 0 -37 10 -51 24 -13 14 -35 28 -47 32 -13 4
-29 15 -36 25 -6 9 -28 23 -47 29 -19 6 -37 20 -41 32 -3 11 -22 35 -42 52
-20 17 -49 43 -64 59 -21 20 -39 27 -68 27 -38 0 -39 0 -46 45 l-6 46 -52 -3
c-37 -2 -51 -7 -51 -18 0 -8 10 -16 23 -18 21 -3 23 -8 20 -60 -3 -49 -6 -57
-23 -57 -16 0 -22 10 -28 48 -10 51 -20 58 -39 27 -8 -12 -24 -20 -40 -20 -23
0 -28 -4 -28 -25 0 -29 -24 -43 -44 -26 -21 17 -8 51 19 51 19 0 23 7 29 49 5
41 10 50 31 55 21 5 25 13 25 41 0 18 -5 37 -11 40 -12 8 -59 -33 -59 -51 0
-15 -60 -34 -107 -34 -30 0 -33 3 -33 29 0 24 5 31 29 36 37 8 47 32 24 57
-17 19 -17 20 2 34 10 8 36 14 57 14 33 0 38 -3 38 -24 0 -54 55 -63 119 -20
43 28 43 28 39 81 -3 29 -8 56 -11 60 -4 3 -16 -6 -28 -21 -18 -23 -27 -27
-67 -24 -33 2 -48 8 -56 23 -18 33 -30 36 -49 10 -14 -19 -28 -25 -58 -25 -26
0 -39 4 -39 14 0 7 -3 27 -6 43 -5 26 -2 31 26 43 30 12 31 16 28 59 -3 41 -1
46 19 49 20 3 23 -2 29 -47 l7 -51 48 0 c46 0 49 1 51 28 2 47 -1 62 -23 91
-26 36 -43 119 -28 137 6 7 20 14 32 16 15 2 23 11 25 28 5 51 13 70 26 70 8
0 17 -11 20 -25 6 -25 46 -56 46 -35 0 5 11 10 24 10 24 0 56 23 56 41 0 5 7
9 16 9 20 0 144 118 144 137 0 16 57 53 83 53 9 0 17 6 17 14 0 7 10 20 23 29
20 13 21 17 9 48 -11 30 -10 36 5 47 26 19 73 16 73 -6 0 -51 52 -49 166 6 17
8 45 13 62 10 23 -3 32 0 35 13 6 24 -11 39 -46 39 -33 0 -67 16 -67 32 0 6
-7 19 -16 29 -28 31 -11 49 47 49 44 0 54 -4 77 -30z m973 -25 c16 -51 22 -56
92 -70 28 -6 38 -25 12 -25 -9 0 -15 -9 -15 -22 0 -32 -10 -44 -43 -52 -37 -9
-33 -40 5 -44 35 -4 52 -25 39 -49 -5 -10 -12 -26 -15 -35 -2 -9 -15 -18 -27
-20 -15 -2 -23 -11 -26 -28 -5 -35 -19 -46 -30 -24 -10 21 -10 31 1 57 12 25
-30 56 -76 57 -33 0 -38 4 -43 28 -10 46 -21 57 -64 63 -22 3 -41 3 -42 0 0
-3 -2 -14 -4 -25 -2 -11 3 -20 15 -23 19 -5 47 -84 35 -102 -10 -18 -51 -13
-70 9 -10 11 -24 20 -30 20 -16 0 -25 32 -25 88 0 41 0 42 35 42 27 0 35 4 35
19 0 10 9 30 20 44 11 14 20 28 20 31 0 17 39 48 71 56 27 8 39 17 43 36 6 21
12 25 39 22 29 -3 34 -8 48 -53z m-421 -20 c0 -18 -5 -25 -20 -25 -12 0 -25
-10 -32 -25 -9 -20 -18 -25 -50 -25 -39 0 -54 22 -23 34 8 3 19 17 25 30 8 23
24 29 83 35 12 1 17 -6 17 -24z m165 9 c9 -9 14 -21 12 -27 -4 -13 -64 -27
-84 -20 -13 5 -18 45 -6 56 12 13 62 7 78 -9z m-1210 -19 c0 -16 -8 -21 -39
-23 -43 -4 -62 8 -52 33 4 12 16 15 48 13 35 -2 43 -7 43 -23z m4660 -77 c8
-44 -9 -68 -32 -45 -17 18 -5 111 13 97 7 -6 16 -29 19 -52z m-6992 21 c3 -11
14 -19 25 -19 21 0 34 -30 22 -50 -4 -6 -24 -10 -46 -8 -37 3 -39 5 -42 42 -2
21 -1 44 2 52 7 18 33 7 39 -17z m230 -5 c-24 -18 -40 -17 -47 2 -10 26 2 34
35 22 28 -9 28 -11 12 -24z m4560 21 c8 -18 -11 -31 -25 -17 -11 11 -3 32 12
32 4 0 10 -7 13 -15z m-3599 -29 c-6 -16 -8 -17 -16 -2 -11 19 0 42 13 29 6
-6 7 -18 3 -27z m-1570 -12 c11 -4 13 -11 5 -31 -5 -13 -9 -36 -9 -49 0 -21
-4 -25 -22 -22 -17 2 -25 13 -31 41 -5 20 -6 44 -3 52 6 15 33 19 60 9z m-230
-36 c-7 -10 -34 -10 -34 0 0 4 5 13 12 20 9 9 14 9 19 0 4 -7 5 -16 3 -20z
m491 12 c0 -22 -29 -18 -33 3 -3 14 1 18 15 15 10 -2 18 -10 18 -18z m1506
-19 l39 -39 -30 -14 c-29 -12 -31 -16 -29 -61 3 -54 -11 -77 -35 -57 -11 8
-14 21 -10 37 9 32 -16 134 -33 140 -10 4 -11 9 -2 19 21 26 59 16 100 -25z
m69 10 c0 -5 -7 -11 -15 -15 -15 -5 -20 5 -8 17 9 10 23 9 23 -2z m778 -44 c3
-23 0 -27 -22 -27 -55 0 -77 32 -33 50 35 14 52 7 55 -23z m117 -2 c0 -13 -8
-21 -22 -23 -19 -3 -23 1 -23 23 0 22 4 26 23 23 14 -2 22 -10 22 -23z m-392
-35 c6 -23 -3 -32 -22 -20 -15 8 -8 40 8 40 5 0 11 -9 14 -20z m-2663 -45 c0
-51 -2 -55 -24 -55 -16 0 -26 7 -29 21 -3 11 -15 23 -26 26 -22 5 -37 36 -26
53 3 5 28 10 56 10 l49 0 0 -55z m109 -9 c17 -20 2 -46 -25 -46 -29 0 -41 24
-24 45 16 19 34 19 49 1z m2284 -8 c6 -18 -3 -38 -17 -38 -6 0 -17 -14 -23
-31 -9 -24 -17 -30 -35 -27 -33 4 -38 52 -6 69 13 6 27 18 31 25 10 17 44 18
50 2z m545 -10 c-5 -34 -38 -37 -38 -4 0 20 5 26 21 26 15 0 20 -5 17 -22z
m1758 0 c4 -13 18 -39 31 -60 34 -50 25 -78 -25 -78 -29 0 -39 -5 -47 -22 -7
-15 -19 -23 -35 -23 -19 0 -27 8 -39 39 -14 38 -14 39 11 61 26 22 42 55 47
95 0 6 12 10 25 10 17 0 27 -7 32 -22z m-3990 -53 c9 -51 2 -80 -22 -83 -17
-2 -23 4 -27 27 -4 16 -16 35 -27 41 -21 11 -21 12 12 46 30 30 34 32 45 17 7
-9 15 -31 19 -48z m148 56 c8 -13 -4 -42 -15 -35 -12 7 -12 44 0 44 6 0 12 -4
15 -9z m766 -10 c0 -18 -18 -21 -30 -6 -10 13 -9 15 9 15 11 0 21 -4 21 -9z
m6129 -128 c1 -13 4 -22 9 -20 4 1 8 -1 10 -5 1 -5 0 -7 -1 -5 -2 1 -11 -4
-20 -11 -14 -12 -17 -8 -28 26 -7 25 -9 55 -4 79 l8 38 13 -40 c7 -22 13 -50
13 -62z m-3344 46 c8 -23 -7 -45 -24 -35 -12 8 -15 39 -4 49 12 12 22 7 28
-14z m-1955 -64 c13 -16 6 -35 -15 -35 -18 0 -28 17 -21 35 7 19 20 19 36 0z
m-1532 -13 c2 -7 -6 -12 -17 -12 -21 0 -27 11 -14 24 9 9 26 2 31 -12z m1032
-2 c0 -11 -6 -20 -14 -20 -18 0 -29 16 -21 30 11 18 35 11 35 -10z m-766 -22
c7 -35 -7 -59 -25 -41 -12 12 -3 73 11 73 4 0 10 -14 14 -32z m1040 -4 c9 -3
16 -15 16 -25 0 -26 31 -25 53 2 21 23 50 22 55 -4 3 -13 -4 -17 -28 -17 l-32
0 2 -52 c2 -29 2 -79 1 -110 -1 -51 -3 -58 -22 -58 -13 0 -23 -10 -30 -29 -16
-45 -47 -49 -62 -8 -4 9 -18 22 -32 27 -14 5 -25 16 -25 25 0 9 -11 20 -25 25
-61 23 -37 70 36 70 54 0 52 -3 49 82 -2 75 5 87 44 72z m361 -15 c4 -5 0 -18
-9 -28 -10 -11 -16 -36 -16 -69 0 -43 -4 -53 -22 -63 -13 -7 -28 -18 -36 -25
-7 -7 -19 -11 -27 -9 -8 3 -22 7 -31 10 -11 4 -13 9 -6 18 5 6 13 35 16 62 17
123 12 115 72 115 29 0 56 -5 59 -11z m-2499 -68 c5 -25 12 -30 38 -33 30 -3
31 -5 34 -52 2 -27 1 -60 -3 -73 -8 -32 -43 -31 -51 2 -3 14 -10 25 -15 25 -5
0 -15 11 -21 25 -10 23 -17 26 -62 24 -52 -1 -114 16 -102 29 4 4 26 12 49 17
29 8 43 17 46 30 4 25 19 35 54 35 23 0 29 -5 33 -29z m1100 -42 c3 -6 1 -16
-5 -22 -9 -9 -14 -8 -21 3 -9 15 -4 30 10 30 5 0 12 -5 16 -11z m-1419 -54 c7
-20 -2 -29 -21 -22 -9 4 -13 13 -10 22 8 19 23 19 31 0z m991 -13 c3 -16 -2
-22 -17 -22 -24 0 -35 15 -27 36 9 23 40 13 44 -14z m322 -6 c5 -14 19 -26 32
-28 17 -2 24 -11 26 -30 4 -32 -3 -33 -59 -16 -38 11 -39 13 -39 55 0 49 24
61 40 19z m-1211 -23 c-1 -34 -2 -35 -9 -13 -11 36 -11 50 0 50 6 0 10 -17 9
-37z m4655 -9 c25 -24 10 -34 -50 -34 -63 0 -69 16 -13 36 45 16 45 16 63 -2z
m-2793 -50 c5 -3 9 -14 9 -24 0 -10 9 -25 20 -33 19 -13 19 -16 4 -46 -9 -18
-18 -58 -21 -90 -5 -54 -4 -59 16 -66 11 -3 30 -3 41 0 30 10 57 -3 64 -29 3
-13 15 -26 26 -29 17 -4 20 -13 20 -61 0 -52 -2 -56 -23 -56 -12 0 -29 -9 -37
-20 -17 -24 -43 -26 -60 -5 -13 15 -14 14 35 30 22 6 18 42 -5 55 -11 6 -20
19 -20 28 0 13 -14 22 -50 31 -49 13 -50 13 -50 52 0 29 -5 41 -17 45 -54 17
-73 28 -73 40 0 7 -7 17 -15 22 -13 7 -15 24 -13 82 3 69 5 75 28 82 26 7 104
3 121 -8z m711 -28 c5 -42 0 -56 -18 -56 -8 0 -14 1 -15 3 0 1 -2 21 -5 45 -5
37 -4 42 14 42 15 0 21 -8 24 -34z m-2452 4 c0 -22 -28 -27 -61 -10 -31 17
-22 30 21 30 33 0 40 -3 40 -20z m1180 10 c0 -5 -4 -10 -10 -10 -5 0 -10 5
-10 10 0 6 5 10 10 10 6 0 10 -4 10 -10z m687 -3 c4 -8 16 -16 26 -20 26 -10
32 -36 13 -55 -13 -13 -18 -14 -28 -4 -13 13 -15 17 -17 52 -1 13 -6 17 -16
14 -9 -4 -15 0 -15 10 0 19 26 21 37 3z m2983 -7 c0 -5 -4 -10 -10 -10 -5 0
-10 5 -10 10 0 6 5 10 10 10 6 0 10 -4 10 -10z m-4681 -66 c10 -28 10 -41 0
-65 -15 -39 2 -104 30 -112 12 -3 21 -15 23 -33 3 -28 4 -29 56 -26 47 3 52 1
52 -17 0 -19 -6 -21 -47 -20 -27 1 -74 -2 -106 -6 -55 -7 -59 -6 -64 15 -3 12
-16 26 -29 31 -36 13 -33 57 4 61 27 3 27 3 27 83 0 86 9 125 29 125 6 0 18
-16 25 -36z m271 15 c0 -5 -10 -9 -21 -9 -18 0 -19 2 -9 15 12 15 30 12 30 -6z
m1604 6 c18 -14 18 -16 4 -27 -9 -7 -18 -22 -20 -33 -2 -11 -12 -21 -24 -23
-18 -3 -22 4 -28 38 -3 23 -4 45 -1 51 9 14 47 10 69 -6z m-574 -4 c0 -6 -4
-13 -10 -16 -5 -3 -10 1 -10 9 0 9 5 16 10 16 6 0 10 -4 10 -9z m-1560 -59
c-1 -19 -19 -32 -42 -30 -28 2 -34 32 -9 48 15 9 51 -4 51 -18z m2486 -30 c6
-4 14 -15 17 -26 6 -15 14 -17 51 -12 39 6 46 4 56 -14 15 -28 6 -50 -20 -50
-13 0 -24 -10 -31 -27 -5 -16 -12 -35 -16 -43 -3 -8 -5 -19 -4 -24 1 -4 -5
-14 -14 -20 -15 -11 -14 -14 4 -38 17 -22 28 -57 19 -59 -62 -12 -87 -9 -116
16 -17 14 -44 30 -61 36 -26 9 -31 16 -31 44 0 50 23 62 54 28 21 -22 28 -25
38 -15 7 7 13 16 13 20 1 4 6 16 12 28 15 26 9 79 -12 111 -13 19 -14 27 -4
39 13 15 28 18 45 6z m-2561 -12 c3 -6 -1 -13 -10 -16 -19 -8 -30 0 -20 15 8
14 22 14 30 1z m873 -7 c2 -8 -6 -13 -22 -13 -25 0 -33 10 -19 24 10 10 36 3
41 -11z m4162 -60 c0 -21 -4 -24 -27 -21 -32 3 -42 33 -23 68 l11 21 20 -22
c10 -12 19 -33 19 -46z m-4508 19 c40 -17 26 -42 -23 -42 -44 0 -55 14 -45 56
6 23 9 25 24 12 9 -8 29 -19 44 -26z m-412 8 c18 -33 9 -104 -14 -108 -31 -6
-39 12 -32 72 8 60 26 74 46 36z m2071 0 c14 -8 19 -21 19 -55 0 -33 4 -45 15
-45 8 0 15 9 15 19 0 24 36 37 55 21 20 -17 19 -22 -10 -56 -14 -16 -20 -31
-15 -32 30 -10 33 -72 4 -72 -8 0 -14 -9 -14 -20 0 -14 -7 -20 -24 -20 -26 0
-36 21 -36 77 0 22 -6 33 -18 37 -10 3 -25 19 -35 35 -14 23 -15 35 -6 62 6
19 12 40 15 47 4 15 10 15 35 2z m-933 -97 c-2 -31 -8 -38 -31 -44 -39 -10
-57 -2 -53 24 3 12 5 30 5 40 1 13 10 17 42 17 l40 0 -3 -37z m3666 -53 c-14
-14 -38 5 -30 26 6 16 8 16 23 1 11 -11 14 -20 7 -27z m-4156 0 c7 -16 12 -46
10 -67 -2 -30 -7 -39 -25 -41 -14 -2 -23 3 -28 17 -9 29 -41 45 -49 25 -12
-32 -6 -103 10 -119 9 -9 15 -17 13 -19 -50 -34 -58 -36 -67 -18 -6 9 -13 37
-17 62 -10 63 -17 68 -72 60 -26 -4 -57 -4 -68 0 -15 5 -9 9 26 14 25 4 52 4
60 1 11 -4 15 2 14 22 0 26 2 28 38 26 42 -3 95 19 115 48 18 26 25 24 40 -11z
m652 -31 c0 -12 -29 -24 -37 -16 -3 4 -3 13 0 21 6 16 37 11 37 -5z m3545 -38
c-9 -29 -22 -18 -23 20 -1 29 1 31 15 17 9 -10 13 -24 8 -37z m151 22 c21 -24
23 -36 21 -95 -2 -37 -6 -71 -10 -74 -14 -14 -27 10 -27 51 0 36 -4 47 -22 56
-13 7 -25 11 -28 10 -9 -4 -12 29 -6 55 9 33 42 31 72 -3z m-4181 -48 c0 -13
-8 -21 -22 -23 -17 -3 -23 2 -23 16 0 10 3 22 7 26 13 13 38 1 38 -19z m434
-77 c1 -42 -1 -48 -20 -48 -20 0 -21 4 -14 48 3 26 9 58 13 72 l6 25 7 -25 c4
-14 7 -46 8 -72z m551 76 c0 -9 -7 -14 -17 -12 -25 5 -28 28 -4 28 12 0 21 -6
21 -16z m433 -81 c4 -2 7 -13 7 -23 0 -13 -8 -20 -27 -22 -25 -3 -29 -8 -36
-55 -9 -54 -25 -69 -34 -32 -3 11 -16 25 -29 30 -29 11 -32 45 -4 52 11 3 20
14 20 24 0 31 21 44 60 37 19 -4 38 -9 43 -11z m597 -17 c0 -3 -4 -8 -10 -11
-5 -3 -10 -1 -10 4 0 6 5 11 10 11 6 0 10 -2 10 -4z m210 -6 c0 -5 -4 -10 -10
-10 -5 0 -10 5 -10 10 0 6 5 10 10 10 6 0 10 -4 10 -10z m-480 -19 c16 -31 12
-59 -11 -71 -11 -7 -18 -14 -15 -17 8 -8 -34 -43 -51 -43 -8 0 -20 14 -26 30
-17 45 -41 35 -47 -20 -5 -41 -8 -45 -33 -48 -18 -2 -33 3 -41 14 -12 16 -14
16 -39 -1 -43 -28 -66 4 -27 38 22 18 26 57 9 74 -16 16 44 27 71 13 18 -10
26 -8 44 9 31 29 86 26 86 -5 0 -23 14 -16 32 16 20 35 33 38 48 11z m-2300
-32 c0 -30 -14 -39 -23 -15 -8 19 3 57 14 50 5 -3 9 -18 9 -35z m2405 -14 c0
-10 -5 -20 -11 -22 -13 -4 -27 24 -18 38 9 15 29 4 29 -16z m2295 9 c0 -9 -9
-18 -20 -21 -13 -3 -20 -14 -20 -29 0 -20 -5 -24 -30 -24 -27 0 -30 -3 -30
-30 0 -19 -7 -33 -20 -40 -38 -21 -17 -72 39 -91 41 -15 44 -55 4 -70 -43 -16
-67 -8 -78 29 -5 17 -13 32 -17 32 -18 0 -38 63 -37 117 1 105 40 174 54 94 6
-34 11 -41 30 -41 17 0 25 6 27 23 2 15 11 23 29 25 17 2 29 11 32 23 6 23 37
26 37 3z m-4160 -60 c0 -2 -7 -4 -15 -4 -8 0 -15 4 -15 10 0 5 7 7 15 4 8 -4
15 -8 15 -10z m541 -34 c20 0 26 -24 8 -35 -6 -4 -26 -4 -45 -1 -31 6 -34 10
-34 40 0 45 11 52 33 22 10 -15 27 -26 38 -26z m1329 -61 c0 14 37 14 46 0 14
-22 -13 -32 -63 -21 -26 5 -38 10 -25 11 16 1 21 5 16 14 -5 8 -2 8 9 -2 11
-9 17 -10 17 -2z m-2051 -59 c34 0 14 -18 -24 -22 -24 -2 -31 -8 -33 -30 -4
-32 -24 -51 -46 -42 -19 7 -23 83 -6 115 10 18 11 18 48 -1 20 -11 48 -20 61
-20z m1715 2 c2 -4 7 -23 11 -43 8 -41 -10 -57 -40 -35 -13 9 -15 20 -10 49 7
34 26 49 39 29z m1036 -7 c0 -9 -9 -15 -25 -15 -24 0 -32 10 -18 23 12 13 43
7 43 -8z m-1627 -86 c2 -35 -1 -44 -17 -47 -25 -5 -35 14 -29 57 11 68 43 62
46 -10z m-231 36 c0 -5 -5 -11 -11 -13 -6 -2 -11 4 -11 13 0 9 5 15 11 13 6
-2 11 -8 11 -13z m332 -18 c-3 -9 -10 -17 -15 -17 -11 0 -12 34 -2 44 11 11
24 -9 17 -27z m-2624 13 c0 -5 -4 -10 -10 -10 -5 0 -10 5 -10 10 0 6 5 10 10
10 6 0 10 -4 10 -10z m3010 -30 c0 -33 -3 -40 -20 -40 -17 0 -20 7 -20 40 0
33 3 40 20 40 17 0 20 -7 20 -40z m-1530 26 c0 -3 -4 -8 -10 -11 -5 -3 -10 -1
-10 4 0 6 5 11 10 11 6 0 10 -2 10 -4z m1886 -11 c9 -8 11 -15 6 -15 -5 0 -9
-8 -8 -17 2 -24 -48 -41 -68 -24 -24 20 6 61 52 70 2 1 10 -6 18 -14z m1954
-45 c0 -9 -11 -22 -24 -30 -21 -11 -27 -10 -40 3 -24 23 -19 44 12 55 31 11
52 -1 52 -28z m-3282 12 c5 -17 -27 -27 -41 -13 -9 9 -8 14 3 21 18 11 32 8
38 -8z m-602 -36 c31 -24 7 -50 -50 -54 -37 -2 -46 -7 -46 -21 0 -19 -18 -31
-46 -31 -8 0 -14 10 -14 25 0 19 5 25 21 25 13 0 23 10 30 29 10 28 15 31 75
40 5 0 19 -5 30 -13z m1414 -21 c0 -26 -9 -29 -48 -19 -22 6 -22 8 -6 25 25
28 54 25 54 -6z m1044 -6 c10 -49 7 -66 -10 -73 -21 -8 -24 -5 -34 39 -10 45
-4 65 20 65 12 0 20 -10 24 -31z m218 19 c3 -9 22 -9 79 0 83 13 139 13 139 0
0 -12 34 -10 47 3 21 21 56 5 80 -38 22 -41 22 -42 4 -55 -10 -7 -20 -22 -22
-33 -6 -29 -36 -31 -44 -3 -4 13 -12 26 -18 30 -13 8 -65 1 -135 -19 -48 -13
-55 -13 -71 1 -24 22 -33 20 -63 -14 -19 -22 -35 -30 -58 -30 -24 0 -33 -5
-37 -21 -4 -15 -12 -19 -32 -17 -33 4 -37 41 -4 46 13 2 24 13 27 28 4 13 12
24 20 24 7 0 21 24 31 55 12 40 22 55 35 55 10 0 20 -5 22 -12z m1868 -73 c0
-13 -5 -25 -11 -27 -5 -2 -11 -11 -13 -20 -3 -26 -16 -34 -26 -18 -16 25 -12
107 6 125 15 15 17 14 30 -11 8 -14 14 -37 14 -49z m-1050 -5 c0 -11 7 -23 15
-26 25 -10 17 -32 -16 -39 -36 -8 -38 -7 -49 39 -8 36 -3 44 33 45 11 1 17 -6
17 -19z m-111 -19 c10 -6 11 -20 6 -52 -9 -51 -17 -59 -66 -59 -36 0 -37 1
-44 46 -8 54 -3 61 45 67 19 2 37 4 40 5 3 1 11 -2 19 -7z m-3405 -7 c9 -3 16
-13 16 -21 0 -20 -34 -12 -38 10 -4 19 -1 20 22 11z m2081 -15 c0 -7 -8 -15
-17 -17 -18 -3 -25 18 -11 32 10 10 28 1 28 -15z m439 -11 c-9 -14 -23 2 -17
18 4 12 8 13 14 3 4 -7 5 -17 3 -21z m1211 12 c8 -25 -1 -40 -25 -40 -20 0
-32 22 -24 45 9 22 42 18 49 -5z m-2195 -3 c0 -8 -9 -22 -20 -32 -11 -10 -20
-24 -20 -31 0 -8 -11 -16 -25 -20 -14 -3 -30 -15 -36 -26 -15 -27 -32 -17 -40
23 -8 37 3 59 31 59 10 0 20 9 23 20 4 16 14 20 46 20 28 0 41 -4 41 -13z
m-1462 -60 c2 -12 -3 -17 -17 -17 -15 0 -21 6 -21 21 0 25 33 22 38 -4z m3461
-33 l24 -17 -24 -19 c-49 -38 -56 -39 -74 -12 -16 24 -16 27 1 45 21 23 42 24
73 3z m630 -8 c9 -10 8 -16 -4 -26 -19 -16 -41 1 -32 24 8 20 21 20 36 2z
m-1226 -13 c-7 -2 -19 -2 -25 0 -7 3 -2 5 12 5 14 0 19 -2 13 -5z m132 -58 c0
-25 -4 -30 -28 -33 -25 -3 -27 -1 -23 22 7 36 15 48 34 44 11 -2 17 -13 17
-33z m173 8 c-3 -32 -44 -46 -54 -19 -10 26 4 46 31 46 23 0 26 -4 23 -27z
m472 2 c0 -8 -4 -15 -10 -15 -5 0 -10 7 -10 15 0 8 5 15 10 15 6 0 10 -7 10
-15z m-364 -49 c7 -18 -9 -79 -21 -83 -13 -3 -48 74 -40 87 9 15 55 12 61 -4z
m-1796 -35 c11 -35 10 -42 -6 -64 -36 -48 -104 -53 -104 -7 0 10 -9 22 -21 25
-34 11 -19 39 25 46 21 3 43 14 48 23 17 29 44 19 58 -23z m1460 25 c0 -11
-19 -15 -25 -6 -3 5 1 10 9 10 9 0 16 -2 16 -4z m1226 -63 c-11 -11 -46 -14
-46 -3 0 6 12 10 27 10 14 0 23 -3 19 -7z m-5646 -32 c0 -9 3 -32 6 -52 5 -31
3 -37 -15 -42 -26 -6 -31 1 -38 59 -4 32 -1 49 7 54 18 11 40 1 40 -19z m3880
-10 c0 -10 6 -24 13 -33 19 -25 104 -3 112 30 9 36 30 20 33 -26 3 -37 0 -43
-22 -51 -14 -6 -26 -19 -28 -33 -5 -35 -34 -35 -41 0 -10 50 -67 50 -67 0 0
-11 -9 -22 -20 -25 -15 -4 -20 -14 -20 -37 0 -53 -11 -76 -34 -76 -14 0 -26
11 -36 33 -15 32 -16 32 -82 31 -51 -2 -68 1 -72 13 -4 9 -1 22 5 29 6 8 8 14
3 14 -4 0 -2 6 5 13 10 10 15 8 26 -6 18 -25 60 -30 120 -14 l50 13 5 65 c3
35 9 69 13 76 10 16 37 5 37 -16z m-112 -9 c3 -16 -2 -22 -17 -22 -24 0 -35
15 -27 36 9 23 40 13 44 -14z m1269 12 c7 -19 -20 -49 -36 -40 -6 4 -11 18
-11 32 0 17 5 24 20 24 11 0 23 -7 27 -16z m-4107 -8 c0 -21 -21 -31 -30 -15
-5 7 -6 17 -4 21 9 14 34 9 34 -6z m4530 4 c0 -6 -11 -15 -25 -20 -18 -7 -25
-17 -25 -35 0 -32 -28 -45 -46 -21 -11 16 -10 58 2 78 7 12 94 10 94 -2z
m-704 -69 c-2 -9 -7 -28 -10 -43 -4 -16 -13 -28 -20 -28 -8 0 -16 -9 -19 -21
-4 -15 -12 -20 -29 -17 -14 2 -22 9 -19 18 2 8 4 21 5 28 1 7 12 19 24 28 12
8 22 23 22 33 0 9 5 22 12 29 15 15 40 -4 34 -27z m-4696 -128 c0 -67 -8 -80
-40 -63 -18 10 -20 17 -15 63 4 29 11 62 17 74 10 21 12 21 24 5 8 -10 14 -44
14 -79z m3384 82 c8 -8 21 -15 28 -15 24 -1 88 -65 88 -89 0 -13 -13 -40 -30
-61 -23 -29 -30 -48 -30 -82 0 -24 -7 -53 -15 -65 -13 -19 -19 -21 -46 -11
-32 11 -44 31 -54 89 -5 33 -9 37 -48 45 -32 7 -42 14 -42 29 0 13 9 21 31 25
47 10 51 15 57 76 7 69 29 91 61 59z m-2626 -101 c4 -37 -14 -88 -28 -79 -17
11 -27 68 -17 93 15 32 41 24 45 -14z m2460 4 c3 -27 -16 -38 -71 -38 -25 0
-28 3 -25 28 2 22 9 28 38 33 48 9 55 6 58 -23z m862 -38 c0 -16 -4 -30 -9
-30 -10 0 -22 40 -15 52 11 18 24 6 24 -22z m-3370 -85 c0 -18 5 -25 19 -25
20 0 31 -25 31 -72 0 -21 -5 -28 -20 -28 -16 0 -21 9 -26 50 -4 31 -12 50 -20
50 -17 0 -27 17 -20 35 9 25 36 17 36 -10z m310 -13 c0 -15 -2 -15 -10 -2 -13
20 -13 33 0 25 6 -3 10 -14 10 -23z m290 -31 c0 -19 -24 -51 -39 -51 -4 0 -5
16 -3 35 3 26 9 35 23 35 12 0 19 -7 19 -19z m2880 -7 c0 -8 -4 -12 -10 -9 -5
3 -10 10 -10 16 0 5 5 9 10 9 6 0 10 -7 10 -16z m4040 -44 c0 -5 -4 -10 -10
-10 -5 0 -10 5 -10 10 0 6 5 10 10 10 6 0 10 -4 10 -10z m-7422 -63 c2 -12 -3
-17 -17 -17 -23 0 -24 1 -15 25 8 19 28 15 32 -8z m3628 -16 c-8 -9 -16 -25
-18 -36 -6 -34 -32 -24 -35 14 -4 46 11 63 43 49 21 -10 22 -13 10 -27z m-121
-75 c9 -69 0 -98 -28 -94 -17 2 -24 13 -31 49 -12 64 -2 99 28 99 22 0 25 -5
31 -54z m-3225 -241 c0 -27 -26 -35 -47 -14 -17 17 -4 39 23 39 19 0 24 -5 24
-25z m-500 -446 c0 -19 -5 -29 -15 -29 -16 0 -31 42 -21 59 12 19 36 -1 36
-30z m7150 -34 c0 -16 -6 -25 -15 -25 -15 0 -21 31 -8 43 13 14 23 6 23 -18z
m-5897 -192 c-3 -7 -9 -10 -14 -7 -11 6 -12 38 -2 48 9 9 22 -25 16 -41z m220
-124 l-7 -34 -6 30 c-3 17 -1 33 4 37 15 10 17 5 9 -33z m-1373 -79 c0 -11 -4
-20 -9 -20 -11 0 -22 26 -14 34 12 12 23 5 23 -14z m2685 -130 c22 -24 13 -50
-17 -50 -13 0 -33 -3 -45 -6 -21 -6 -23 -3 -23 29 0 19 6 38 13 40 26 11 55 6
72 -13z m-2570 -58 c0 -23 -4 -42 -10 -42 -13 0 -28 58 -21 77 11 29 31 6 31
-35z m6435 28 c0 -5 -5 -10 -11 -10 -5 0 -7 5 -4 10 3 6 8 10 11 10 2 0 4 -4
4 -10z m-4185 -110 c0 -8 -10 -16 -22 -18 -18 -3 -23 2 -23 18 0 16 5 21 23
18 12 -2 22 -10 22 -18z m705 -6 c0 -33 -33 -30 -38 4 -3 17 2 22 17 22 16 0
21 -6 21 -26z m2670 -484 c0 -5 -7 -10 -15 -10 -8 0 -15 5 -15 10 0 6 7 10 15
10 8 0 15 -4 15 -10z"/>
<path d="M5830 8360 c-8 -5 -11 -12 -7 -16 4 -4 13 -2 19 4 15 15 7 24 -12 12z"/>
<path d="M6308 8326 c-12 -29 -5 -56 16 -56 20 0 27 26 16 55 -12 31 -18 31
-32 1z"/>
<path d="M5886 8299 c-12 -27 -11 -72 1 -76 16 -6 24 27 14 62 -6 22 -10 26
-15 14z"/>
<path d="M6588 8139 c-11 -6 -18 -22 -18 -42 0 -30 4 -34 43 -45 79 -24 153
10 117 53 -9 11 -23 13 -52 8 -34 -5 -43 -3 -57 15 -12 16 -20 19 -33 11z"/>
<path d="M6339 7953 c-14 -38 0 -58 42 -58 38 0 46 16 30 58 -15 38 -57 38
-72 0z"/>
<path d="M6784 7926 c-9 -22 4 -36 32 -36 21 0 25 4 22 23 -4 26 -45 37 -54
13z"/>
<path d="M6890 7875 c-7 -8 -9 -22 -6 -31 5 -14 15 -15 52 -10 56 7 64 12 64
37 0 16 -7 19 -49 19 -31 0 -53 -5 -61 -15z"/>
<path d="M5090 7861 c0 -17 6 -21 31 -21 24 0 30 4 27 18 -2 10 -14 18 -31 20
-22 3 -27 -1 -27 -17z"/>
<path d="M5605 7859 c-4 -6 -4 -13 -1 -16 8 -8 36 5 36 17 0 13 -27 13 -35 -1z"/>
<path d="M5220 7751 c0 -13 8 -21 23 -23 14 -2 23 -11 25 -26 2 -15 9 -22 19
-20 25 5 27 25 4 45 -12 9 -21 23 -21 30 0 7 -11 13 -25 13 -18 0 -25 -5 -25
-19z"/>
<path d="M6675 7760 c-10 -16 4 -30 31 -30 17 0 24 5 24 20 0 15 -7 20 -24 20
-14 0 -28 -4 -31 -10z"/>
<path d="M6904 7606 c-9 -24 2 -44 28 -48 15 -2 24 -11 26 -25 3 -19 -1 -23
-22 -23 -32 0 -38 -10 -38 -73 0 -93 -3 -87 47 -87 35 0 45 4 45 16 0 9 -9 18
-19 21 -25 6 -31 22 -20 51 12 32 62 28 67 -5 2 -13 10 -23 18 -23 8 0 14 10
14 23 0 46 12 66 39 69 20 2 26 8 26 28 0 21 -5 26 -33 28 -24 2 -34 -1 -40
-15 -14 -34 -32 -25 -32 16 0 46 -1 46 -57 56 -34 5 -44 4 -49 -9z"/>
<path d="M6564 7595 c-8 -21 4 -35 31 -35 28 0 38 12 29 34 -8 20 -53 21 -60
1z"/>
<path d="M6739 7583 c-17 -45 3 -123 32 -123 4 0 10 9 14 19 3 11 16 21 28 23
19 3 22 10 25 56 l3 52 -46 0 c-40 0 -47 -3 -56 -27z"/>
<path d="M4946 7564 c-11 -30 -7 -64 9 -64 20 0 29 23 21 55 -7 28 -21 33 -30
9z"/>
<path d="M5606 7553 c-12 -12 -6 -33 9 -33 8 0 15 6 15 14 0 17 -14 28 -24 19z"/>
<path d="M5214 7455 c-8 -44 8 -67 31 -44 10 10 12 23 7 43 -12 43 -30 43 -38
1z"/>
<path d="M6511 7442 c-8 -15 -7 -23 4 -32 20 -16 105 -4 105 15 0 18 -9 23
-57 31 -35 5 -43 3 -52 -14z"/>
<path d="M5055 7380 c-7 -12 2 -30 16 -30 5 0 9 9 9 20 0 21 -15 27 -25 10z"/>
<path d="M6678 7373 c-7 -11 -33 -29 -57 -41 l-44 -21 27 -11 c15 -5 35 -10
44 -10 10 0 28 -7 40 -16 22 -15 25 -15 46 6 22 20 23 24 11 63 -14 47 -44 61
-67 30z"/>
<path d="M6387 7321 c-17 -6 -17 -8 -4 -20 21 -17 61 -10 65 12 4 18 -26 22
-61 8z"/>
<path d="M6223 7273 c-20 -8 -15 -29 11 -42 35 -19 60 -10 64 22 3 25 1 27
-30 26 -18 0 -39 -3 -45 -6z"/>
<path d="M7560 7256 c0 -29 19 -44 31 -25 16 25 10 49 -11 49 -15 0 -20 -7
-20 -24z"/>
<path d="M6915 7260 c4 -6 11 -8 16 -5 14 9 11 15 -7 15 -8 0 -12 -5 -9 -10z"/>
<path d="M5755 7170 c-11 -18 6 -50 25 -50 24 0 33 15 25 40 -7 21 -39 27 -50
10z"/>
<path d="M6208 7173 c-9 -2 -20 -13 -23 -23 -4 -12 -21 -21 -53 -27 -37 -6
-47 -12 -47 -28 0 -18 7 -20 58 -21 31 0 60 -4 63 -7 13 -13 43 14 46 40 3 27
5 28 66 28 41 0 62 3 62 11 0 8 -13 10 -41 7 -23 -3 -44 -1 -48 4 -7 12 -59
22 -83 16z"/>
<path d="M4990 7046 c0 -13 6 -26 13 -29 22 -7 37 4 37 29 0 19 -5 24 -25 24
-20 0 -25 -5 -25 -24z"/>
<path d="M5210 6921 c0 -31 25 -49 34 -25 12 32 6 54 -14 54 -15 0 -20 -7 -20
-29z"/>
<path d="M5060 6930 c0 -5 5 -10 10 -10 6 0 10 5 10 10 0 6 -4 10 -10 10 -5 0
-10 -4 -10 -10z"/>
<path d="M4896 6893 c-12 -12 -6 -43 9 -43 8 0 15 9 15 19 0 21 -13 34 -24 24z"/>
<path d="M7862 6877 c-26 -27 -30 -77 -7 -77 8 0 23 -9 32 -20 27 -31 42 -24
49 20 4 25 14 45 25 51 27 14 23 26 -12 38 -46 16 -63 14 -87 -12z"/>
<path d="M5610 6875 c0 -8 5 -15 10 -15 6 0 10 7 10 15 0 8 -4 15 -10 15 -5 0
-10 -7 -10 -15z"/>
<path d="M5270 6830 c0 -13 7 -20 20 -20 13 0 20 7 20 20 0 13 -7 20 -20 20
-13 0 -20 -7 -20 -20z"/>
<path d="M4889 6788 c-8 -27 -5 -38 12 -38 12 0 19 7 19 20 0 11 -7 20 -15 20
-8 0 -15 -1 -16 -2z"/>
<path d="M5164 3796 c-10 -26 1 -51 21 -51 23 0 32 30 15 50 -16 19 -29 19
-36 1z"/>
<path d="M4006 3783 c-3 -10 -8 -35 -12 -56 -3 -20 -13 -41 -21 -46 -8 -4 -13
-17 -11 -27 3 -16 13 -19 63 -21 33 -2 74 0 92 2 30 5 32 8 27 38 -10 55 -43
114 -67 121 -40 10 -66 6 -71 -11z"/>
<path d="M5264 3775 c-7 -18 3 -35 21 -35 15 0 28 27 19 41 -8 14 -34 11 -40
-6z"/>
<path d="M5431 3670 c-21 -12 -5 -42 21 -38 12 2 23 8 25 15 6 16 -30 34 -46
23z"/>
<path d="M4550 3606 c0 -24 23 -41 41 -30 5 3 9 16 9 30 0 19 -5 24 -25 24
-20 0 -25 -5 -25 -24z"/>
<path d="M9200 3380 c0 -5 7 -10 15 -10 8 0 15 5 15 10 0 6 -7 10 -15 10 -8 0
-15 -4 -15 -10z"/>
<path d="M5828 3348 c-23 -19 -32 -82 -13 -98 34 -28 115 44 100 90 -7 23 -61
28 -87 8z"/>
<path d="M5050 3225 c0 -16 6 -25 15 -25 21 0 31 30 14 41 -23 14 -29 11 -29
-16z"/>
<path d="M4900 3165 c0 -10 10 -15 30 -15 35 0 40 15 8 24 -34 9 -38 8 -38 -9z"/>
<path d="M5387 3124 c-15 -15 -7 -45 11 -42 9 2 17 12 17 22 0 20 -16 31 -28
20z"/>
<path d="M5380 2895 c0 -31 15 -38 55 -27 20 6 30 15 30 28 0 15 -8 20 -42 22
-40 3 -43 2 -43 -23z"/>
<path d="M6029 2903 c-1 -10 -2 -55 -3 -100 -1 -93 2 -97 65 -87 38 6 39 7 17
18 -27 14 -36 46 -28 106 8 64 3 80 -26 80 -16 0 -24 -6 -25 -17z"/>
<path d="M6143 2904 c-3 -8 -1 -20 5 -26 16 -16 42 -2 42 22 0 24 -38 28 -47
4z"/>
<path d="M4934 2873 c2 -29 20 -44 28 -24 12 28 9 41 -11 41 -12 0 -18 -7 -17
-17z"/>
<path d="M5701 2798 c-7 -20 1 -73 13 -85 11 -11 24 9 29 44 9 55 -25 87 -42
41z"/>
<path d="M5916 2804 c-21 -21 -20 -28 8 -61 23 -26 26 -27 42 -11 20 20 22 67
3 79 -21 13 -36 11 -53 -7z"/>
<path d="M4777 2708 c-6 -45 5 -68 32 -68 9 0 29 -14 44 -31 34 -39 70 -37 75
4 3 22 0 27 -20 27 -34 0 -44 11 -52 51 -4 25 -14 39 -32 47 -38 18 -41 16
-47 -30z"/>
<path d="M5500 2724 c0 -17 22 -14 28 4 2 7 -3 12 -12 12 -9 0 -16 -7 -16 -16z"/>
<path d="M6642 2674 c2 -22 8 -38 13 -36 15 3 12 65 -3 70 -10 3 -13 -6 -10
-34z"/>
<path d="M4994 2685 c-9 -23 4 -47 23 -43 11 2 19 14 21 31 3 22 -1 27 -18 27
-11 0 -23 -7 -26 -15z"/>
<path d="M5862 2633 c-30 -14 -45 -43 -22 -43 5 0 6 -8 3 -17 -6 -15 -4 -16 9
-5 12 10 21 9 44 -3 16 -8 37 -15 47 -15 23 0 22 27 -3 42 -11 7 -20 18 -20
24 0 26 -25 33 -58 17z"/>
<path d="M6740 2610 c0 -11 2 -20 4 -20 2 0 11 -3 20 -6 12 -5 16 0 16 20 0
19 -5 26 -20 26 -13 0 -20 -7 -20 -20z"/>
<path d="M4720 2566 c0 -21 5 -26 25 -26 18 0 25 5 25 20 0 11 -4 20 -9 20 -5
0 -16 3 -25 6 -12 5 -16 0 -16 -20z"/>
<path d="M6510 2572 c0 -25 -18 -32 -87 -32 -44 0 -61 -5 -84 -25 -16 -13 -45
-27 -64 -31 -19 -3 -35 -9 -35 -13 0 -3 -2 -50 -4 -104 -2 -69 1 -100 10 -108
13 -11 97 -6 199 11 33 5 61 10 63 10 2 0 0 5 -3 10 -3 6 -14 10 -25 10 -22 0
-31 32 -22 85 6 35 11 40 36 43 16 2 40 1 54 -3 24 -6 25 -7 19 -82 -4 -55
-10 -79 -22 -85 -8 -5 -13 -14 -9 -19 3 -6 12 -2 20 9 11 15 20 18 46 13 32
-7 32 -8 29 -55 -2 -40 -8 -53 -33 -75 -17 -14 -41 -28 -52 -31 -33 -9 -31
-36 3 -48 17 -6 48 -29 69 -50 31 -31 45 -39 64 -35 15 3 37 -2 52 -12 16 -11
57 -20 110 -24 63 -5 90 -11 106 -26 26 -24 138 -35 150 -15 11 17 2 40 -16
40 -7 0 -19 12 -26 27 -7 15 -21 29 -30 31 -26 5 -84 64 -91 92 -10 41 -42 67
-91 74 -38 6 -47 12 -52 32 -5 21 -12 24 -55 24 -43 0 -51 3 -59 24 -5 14 -18
30 -30 36 -14 8 -20 21 -20 45 0 29 4 35 22 35 12 0 29 -7 39 -16 17 -15 19
-14 33 21 9 21 16 43 16 51 0 21 18 26 93 28 l71 1 8 33 c13 47 -5 74 -45 70
-24 -2 -33 -8 -35 -25 -3 -20 -9 -23 -46 -23 -23 0 -47 5 -53 11 -7 7 -28 9
-55 5 -97 -14 -92 -16 -98 34 -5 42 -7 45 -37 48 -27 3 -33 0 -33 -16z"/>
<path d="M5386 2533 c-14 -15 -5 -43 14 -43 13 0 20 7 20 19 0 19 -23 35 -34
24z"/>
<path d="M4950 2510 c-11 -11 -32 -25 -46 -30 -19 -7 -25 -16 -22 -33 3 -19
10 -22 50 -25 29 -2 59 3 78 13 27 14 31 20 28 53 -3 34 -6 37 -35 40 -22 2
-38 -3 -53 -18z"/>
<path d="M6152 2518 c-7 -7 -12 -27 -12 -46 0 -29 3 -33 22 -30 16 2 24 12 29
35 9 43 -13 67 -39 41z"/>
<path d="M4993 2308 c-26 -12 -29 -28 -11 -46 30 -30 85 11 57 44 -13 16 -16
16 -46 2z"/>
<path d="M5113 2313 c-18 -7 -16 -30 3 -37 44 -17 100 2 76 26 -11 11 -62 19
-79 11z"/>
<path d="M5310 2244 c-54 -27 -77 -34 -120 -36 l-45 -3 -3 -45 c-2 -35 2 -50
19 -68 19 -21 22 -22 38 -8 10 9 23 16 29 16 7 0 12 5 12 10 0 6 8 10 18 10
31 0 62 29 62 59 0 15 3 31 6 34 12 11 44 -13 44 -33 0 -15 7 -20 26 -20 24 0
25 2 22 48 l-3 47 -40 1 c-22 1 -51 -5 -65 -12z"/>
<path d="M6041 2167 c-15 -39 -14 -57 4 -57 22 0 29 24 17 57 l-10 28 -11 -28z"/>
<path d="M6445 2156 c-28 -9 -41 -19 -43 -34 -3 -20 1 -22 52 -22 58 0 67 9
50 54 -7 18 -5 18 -59 2z"/>
<path d="M5816 2142 c-2 -4 -7 -23 -11 -43 -8 -42 12 -65 47 -55 47 12 52 21
24 49 -14 14 -26 33 -26 42 0 15 -25 21 -34 7z"/>
<path d="M5271 2111 c-17 -11 2 -51 24 -51 20 0 19 29 0 36 -8 4 -12 10 -9 15
7 11 3 11 -15 0z"/>
<path d="M6316 2075 c4 -8 17 -15 30 -15 15 0 24 6 24 15 0 10 -10 15 -30 15
-22 0 -28 -4 -24 -15z"/>
<path d="M5710 2010 c0 -5 7 -10 15 -10 8 0 15 5 15 10 0 6 -7 10 -15 10 -8 0
-15 -4 -15 -10z"/>
<path d="M6034 1975 c-8 -20 4 -65 16 -65 12 0 24 45 16 65 -3 8 -10 15 -16
15 -6 0 -13 -7 -16 -15z"/>
<path d="M6575 1859 c-5 -13 -2 -24 6 -29 20 -13 40 1 37 24 -4 29 -35 33 -43
5z"/>
<path d="M4242 5251 c4 -13 18 -16 19 -4 0 4 -5 9 -11 12 -7 2 -11 -2 -8 -8z"/>
<path d="M6572 6443 c2 -20 9 -28 23 -28 14 0 21 8 23 28 3 23 0 27 -23 27
-23 0 -26 -4 -23 -27z"/>
<path d="M5608 6273 c6 -2 18 -2 25 0 6 3 1 5 -13 5 -14 0 -19 -2 -12 -5z"/>
<path d="M6533 5303 c-20 -7 -15 -23 7 -23 11 0 20 4 20 9 0 13 -12 19 -27 14z"/>
<path d="M12086 8960 c-3 -102 -9 -363 -12 -581 l-7 -396 294 -8 c330 -8 398
0 492 53 62 35 121 114 138 186 14 59 7 151 -16 199 -25 53 -92 114 -152 139
l-53 22 50 28 c65 37 101 86 116 160 23 113 -12 218 -96 291 -79 67 -184 85
-521 89 l-226 3 -7 -185z m420 1 c157 -9 203 -28 229 -95 36 -88 -6 -174 -98
-201 -52 -16 -273 -21 -336 -9 l-32 7 2 127 c0 69 3 139 6 153 6 31 7 31 229
18z m199 -512 c71 -29 99 -68 99 -139 0 -64 -20 -106 -63 -132 -34 -22 -48
-23 -258 -26 l-223 -3 0 113 c0 62 3 137 7 167 l6 54 186 -5 c166 -5 192 -8
246 -29z"/>
<path d="M13485 8778 c-43 -145 -117 -393 -165 -553 -86 -286 -87 -290 -66
-301 12 -7 93 -33 181 -59 88 -26 205 -61 260 -77 195 -58 327 -48 418 32 59
52 83 91 102 169 13 50 14 72 5 115 -14 67 -57 135 -111 171 -44 31 -41 38 22
49 100 18 181 137 181 264 0 123 -60 211 -189 276 -51 25 -525 176 -555 176
-3 0 -40 -118 -83 -262z m354 1 c224 -67 271 -101 271 -191 0 -96 -43 -146
-133 -155 -42 -4 -82 4 -205 40 -84 25 -155 47 -158 50 -5 5 79 297 85 297 3
0 65 -18 140 -41z m-101 -478 c232 -69 297 -115 297 -209 -1 -59 -29 -119 -69
-144 -47 -29 -133 -20 -321 37 -88 26 -164 51 -169 56 -11 10 74 309 89 309 5
0 83 -22 173 -49z"/>
<path d="M11175 8960 c-65 -11 -545 -139 -557 -149 -4 -4 58 -243 139 -531 80
-289 148 -537 151 -553 2 -15 8 -29 12 -32 8 -5 161 34 173 45 5 4 -15 90 -43
190 -38 136 -48 185 -39 190 6 5 57 20 113 35 56 14 108 28 116 31 10 2 90
-56 200 -146 101 -82 190 -150 198 -150 16 0 192 50 208 59 6 3 -77 77 -188
165 l-199 159 55 51 c73 69 98 122 104 218 10 175 -73 343 -197 397 -58 25
-162 33 -246 21z m149 -184 c62 -26 115 -153 101 -244 -8 -53 -51 -105 -114
-137 -42 -21 -319 -105 -347 -105 -14 0 -18 9 -79 233 -26 93 -45 171 -42 173
4 4 253 73 312 87 44 10 137 6 169 -7z"/>
<path d="M1990 7967 c0 -9 7 -14 15 -13 20 3 20 20 1 24 -9 2 -16 -3 -16 -11z"/>
<path d="M2105 7860 c-3 -6 1 -13 10 -16 19 -8 30 0 20 15 -8 14 -22 14 -30 1z"/>
<path d="M2200 7776 c0 -38 4 -48 30 -66 25 -18 30 -28 30 -61 l0 -39 -48 0
c-42 0 -50 3 -65 30 -15 24 -25 30 -52 30 -27 0 -37 5 -47 28 -9 18 -22 28
-41 30 -15 2 -27 8 -27 13 0 5 -9 9 -20 9 -11 0 -20 -3 -20 -8 0 -9 -64 -31
-108 -38 -40 -6 -68 -29 -77 -66 -4 -16 -14 -28 -24 -28 -12 0 -10 -5 9 -21
14 -11 34 -24 45 -28 12 -5 23 -24 30 -52 l11 -44 102 -6 c91 -5 104 -8 118
-27 14 -21 22 -22 159 -22 132 0 144 2 150 19 3 10 19 21 35 24 16 4 39 16 50
27 11 11 34 23 51 27 16 3 31 8 33 12 2 3 6 35 8 71 l3 64 -45 9 c-24 5 -51
17 -60 26 -22 24 -83 40 -130 34 -32 -5 -40 -2 -41 11 -3 40 -26 86 -44 86
-11 0 -15 -11 -15 -44z m108 -178 c15 -15 -2 -38 -28 -38 -17 0 -34 33 -22 44
9 10 37 7 50 -6z"/>
<path d="M2540 7103 c-14 -3 -29 -9 -34 -14 -6 -5 -25 -9 -42 -9 -18 0 -39 -7
-48 -15 -8 -9 -18 -14 -20 -13 -3 2 -15 -5 -26 -14 -11 -10 -33 -18 -49 -18
-42 0 -61 -10 -61 -31 0 -31 -60 -79 -100 -79 -49 0 -80 -10 -80 -25 0 -7 -7
-19 -16 -26 -9 -7 -20 -23 -25 -36 -5 -14 -17 -23 -29 -23 -12 0 -24 -9 -30
-24 -6 -18 -19 -26 -47 -31 -57 -9 -70 -19 -53 -40 21 -26 100 -15 140 18 25
21 42 27 80 27 40 0 50 4 55 20 5 16 15 20 49 20 27 0 48 6 57 16 21 26 66 44
107 44 23 0 45 6 52 15 13 16 57 38 98 50 12 3 22 13 22 20 0 8 8 14 18 15 73
3 119 14 133 32 9 11 32 22 57 25 92 12 50 56 -59 63 -4 0 -9 9 -12 20 -4 17
-13 20 -59 19 -29 -1 -64 -4 -78 -6z"/>
<path d="M2865 6944 c-3 -16 -10 -37 -16 -46 -5 -10 -9 -32 -9 -50 0 -18 -11
-55 -25 -82 -14 -27 -25 -55 -25 -62 0 -6 -11 -15 -25 -18 -15 -4 -25 -14 -25
-24 0 -9 -10 -22 -22 -27 -20 -9 -23 -18 -23 -63 0 -39 -5 -57 -17 -66 -10 -7
-18 -19 -18 -27 0 -11 -2 -11 -10 1 -7 11 -10 7 -10 -17 0 -21 5 -33 13 -33 7
0 24 -10 37 -22 14 -13 28 -22 32 -20 5 1 8 -29 8 -68 l0 -70 29 0 c28 0 30 3
36 48 13 93 12 97 -15 100 -38 5 -42 15 -35 75 7 51 10 56 33 59 18 2 28 10
29 23 2 11 0 15 -3 8 -7 -17 -44 16 -44 40 0 16 8 18 71 16 68 -2 71 -1 99 32
16 19 31 48 34 65 4 17 17 44 30 59 23 27 42 97 31 116 -4 5 -17 9 -31 9 -19
0 -26 6 -30 30 -5 22 -12 30 -28 30 -11 0 -31 3 -43 6 -18 5 -23 1 -28 -22z"/>
<path d="M2663 6272 c-19 -3 -23 -10 -23 -43 0 -28 4 -39 15 -39 21 0 19 -20
-2 -21 -16 0 -15 -1 1 -8 18 -7 18 -8 -5 -14 -13 -4 -59 -7 -101 -7 -67 0 -79
-3 -88 -20 -8 -15 -21 -20 -53 -20 -40 0 -44 3 -57 35 -13 32 -55 72 -72 67
-4 -1 -10 7 -13 18 -7 23 -37 26 -54 6 -7 -8 -31 -17 -54 -21 -66 -10 -77 -15
-77 -34 0 -10 -7 -24 -15 -31 -21 -18 -19 -47 5 -53 13 -3 18 -10 14 -21 -7
-18 2 -22 69 -31 38 -5 50 -11 57 -29 5 -13 16 -26 25 -30 45 -17 204 3 235
29 8 7 50 19 92 25 60 10 79 17 83 31 4 11 13 19 21 19 10 0 14 13 14 45 0 42
2 45 23 41 17 -3 23 1 23 15 0 10 -7 19 -14 19 -10 0 -13 10 -10 35 4 36 -3
43 -39 37z"/>
<path d="M2646 5704 c-13 -33 -6 -102 10 -108 9 -3 19 -4 24 -1 11 7 22 88 14
108 -8 21 -40 22 -48 1z"/>
<path d="M2635 4960 c-3 -5 -1 -10 4 -10 6 0 11 5 11 10 0 6 -2 10 -4 10 -3 0
-8 -4 -11 -10z"/>
<path d="M2545 4210 c-8 -13 4 -32 16 -25 12 8 12 35 0 35 -6 0 -13 -4 -16
-10z"/>
<path d="M2440 4095 c0 -14 4 -25 9 -25 12 0 19 21 13 38 -8 21 -22 13 -22
-13z"/>
<path d="M2545 4088 c-10 -55 -2 -123 15 -123 12 0 15 15 15 74 0 80 -19 110
-30 49z"/>
<path d="M2655 3340 c-10 -16 -8 -86 3 -105 9 -17 10 -17 21 4 23 43 0 140
-24 101z"/>
<path d="M2826 2823 c-13 -13 -6 -63 9 -63 10 0 15 10 15 29 0 30 -12 46 -24
34z"/>
<path d="M3310 2015 c0 -9 5 -15 11 -13 6 2 11 8 11 13 0 5 -5 11 -11 13 -6 2
-11 -4 -11 -13z"/>
</g>
</svg>
