<svg width="149" height="90" viewBox="0 0 149 90" fill="none" xmlns="http://www.w3.org/2000/svg">
<path d="M40.3548 23.5276C37.6159 31.7693 35.179 39.007 34.9186 39.6136C34.6583 40.2202 34.1896 41.2452 33.8772 41.8937C33.5231 42.6258 33.2628 43.3161 33.1899 43.7345C33.0857 44.362 33.0962 44.4352 33.3357 44.9163C33.7002 45.6275 34.2209 45.9099 35.0228 45.8472C36.1892 45.7635 36.5953 45.1987 37.3347 42.7513C37.6055 41.8623 38.0221 40.6386 38.2616 40.032C38.5115 39.4253 39.2822 37.1139 39.9903 34.8861C40.6985 32.6583 41.3025 30.8594 41.3338 30.8803C41.3754 30.9012 43.4374 34.5619 45.9264 39.0279C48.4154 43.4939 50.4878 47.1441 50.519 47.1441C50.5503 47.1441 52.5185 43.0755 54.893 38.1075C57.2674 33.1395 59.2357 29.1232 59.2669 29.1859C59.319 29.2905 62.2141 38.2121 64.1095 44.1319L64.5781 45.5752H71.5452C75.9504 45.5752 78.5227 45.5334 78.5227 45.4707C78.5227 45.3556 65.932 8.87449 65.8278 8.67577C65.7758 8.5921 63.8491 12.3469 60.7561 18.5282C58.0172 24.0296 55.7469 28.527 55.7157 28.527C55.6844 28.527 53.3517 24.0296 50.519 18.5386C47.6968 13.0476 45.364 8.55026 45.3536 8.55026C45.3328 8.55026 43.0833 15.2963 40.3548 23.5276Z" fill="white"/>
<path d="M2.18695 28.3597V45.5753H8.79993H15.4129V29.939V14.3027H16.798C20.0785 14.3027 22.3487 14.742 24.3899 15.7775C26.8893 17.043 28.5139 18.9047 29.1075 21.1534C29.4824 22.5863 29.4824 24.7827 29.0971 26.247C28.441 28.8094 26.3478 31.215 23.9213 32.1877C22.4841 32.7629 21.9218 32.8466 19.6202 32.8362C17.652 32.8152 17.5062 32.8362 17.0792 33.0558C16.4127 33.3905 16.194 33.7461 16.194 34.4782C16.194 34.9803 16.246 35.1476 16.4856 35.4614C16.9438 36.068 17.2979 36.204 18.5163 36.2667L19.5994 36.319L20.1409 37.6264C21.3698 40.5445 22.2863 42.0506 23.6818 43.4312C25.1814 44.9163 26.7331 45.6903 28.6493 45.8995C30.4614 46.0982 32.1901 45.6903 32.7212 44.9477C33.1274 44.3829 33.0857 43.3998 32.6379 42.8559C32.2109 42.3539 31.7006 42.2702 30.5967 42.5526C29.3366 42.8559 28.5972 42.7932 27.5454 42.2911C26.6498 41.8728 25.8167 41.1093 25.1293 40.0843C24.442 39.0593 23.1194 36.2667 23.1194 35.8274C23.1194 35.7333 23.4214 35.5869 23.8692 35.4405C25.9 34.7815 27.4933 33.7879 29.0659 32.1982C31.5236 29.7194 32.6275 27.0105 32.6275 23.5067C32.6275 20.4108 31.6694 17.9634 29.6282 15.7879C28.441 14.5224 27.3475 13.7066 25.8896 12.9954C24.2129 12.1796 23.0361 11.8344 20.5159 11.4161C19.5577 11.2592 18.3289 11.2278 10.8099 11.1964L2.18695 11.1441V28.3597Z" fill="white"/>
<path d="M81.4387 28.3806V45.5962L89.9054 45.5439C98.8719 45.4916 99.4343 45.4602 101.975 44.9477C103.85 44.5607 105.62 43.8495 107.057 42.8978C108.016 42.2807 109.578 40.7432 110.182 39.8333C111.733 37.5114 112.348 34.4155 111.838 31.5602C111.213 28.1191 108.672 25.1802 105.11 23.7891C104.641 23.6008 104.246 23.4335 104.246 23.4021C104.246 23.3707 104.454 23.0674 104.714 22.7223C105.714 21.4044 106.151 20.0866 106.162 18.4341C106.162 15.7356 104.87 13.6752 102.35 12.3574C100.236 11.2592 99.1635 11.165 89.2805 11.165H81.4387V28.3806ZM97.4869 14.4073C99.6634 14.5851 100.569 14.8885 101.6 15.7984C102.132 16.2691 102.642 17.2627 102.736 18.0157C102.819 18.7374 102.621 19.8983 102.309 20.5259C101.944 21.2371 101.226 21.9588 100.507 22.3144C99.9342 22.6072 99.8821 22.6177 98.2575 22.6177C96.8099 22.6177 96.5392 22.6491 96.1747 22.8269C95.0812 23.3812 95.0916 25.0337 96.2059 25.724C96.5808 25.9541 96.6746 25.9646 98.9865 25.975C101.215 25.9855 101.455 26.0064 102.434 26.2574C103.715 26.5921 104.454 26.9059 105.402 27.5334C106.36 28.1819 107.193 29.1232 107.693 30.1482C108.255 31.3196 108.422 32.0204 108.484 33.652C108.536 34.9698 108.526 35.1267 108.276 35.953C107.609 38.1075 105.954 39.9169 103.673 40.9838C102.611 41.4753 100.892 41.9669 99.7155 42.1238C99.2573 42.1865 97.9347 42.2598 96.7787 42.3016L94.6646 42.3643V28.4015C94.6646 20.7246 94.6959 14.4073 94.7375 14.376C94.8313 14.2714 95.8727 14.2818 97.4869 14.4073Z" fill="white"/>
<path d="M116.222 28.3806V45.5962L124.637 45.5439C133.416 45.4916 134.051 45.4707 136.446 45C139.435 44.4143 141.57 43.3789 143.455 41.5904C146.204 38.9652 147.36 35.1476 146.569 31.2464C145.902 27.9727 143.101 24.8873 139.737 23.7054C139.341 23.5695 139.029 23.423 139.029 23.3917C139.029 23.3498 139.206 23.0988 139.435 22.8164C140.008 22.0843 140.435 21.2685 140.716 20.369C141.06 19.2185 141.039 17.5137 140.664 16.3318C139.914 14.0308 137.852 12.2423 135.238 11.6357C133.457 11.2173 132.176 11.165 124.064 11.165H116.222V28.3806ZM132.27 14.4073C133.03 14.4701 133.936 14.5851 134.259 14.6688C136.665 15.2754 137.956 17.2731 137.425 19.5637C137.206 20.484 136.863 21.0697 136.155 21.7182C135.269 22.534 134.738 22.6804 132.895 22.6491C131.572 22.6281 131.322 22.6491 130.968 22.8164C130.437 23.0779 130.177 23.5276 130.177 24.1656C130.177 24.8455 130.427 25.3475 130.937 25.6822L131.364 25.9646H133.707C135.728 25.975 136.196 26.0064 137.009 26.1947C140.497 27.0209 142.684 29.1755 143.184 32.2923C143.361 33.401 143.33 35.0744 143.101 35.8484C142.726 37.1662 142.018 38.2958 140.872 39.3626C139.643 40.5026 138.248 41.2452 136.321 41.7473C134.967 42.1133 133.905 42.2284 131.562 42.3016L129.552 42.3643V28.3283V14.3028H130.208C130.573 14.3028 131.499 14.355 132.27 14.4073Z" fill="white"/>
<path d="M45.9576 69.2964C45.3015 69.5265 44.76 69.9344 44.3643 70.4887C43.9373 71.0849 43.8123 71.5241 43.8644 72.3922C43.9269 73.7728 44.583 74.484 47.1448 75.9483C49.1444 77.0988 49.5089 77.3707 49.8421 78.0506C50.0712 78.5317 50.1025 78.7095 50.04 79.0965C49.8734 80.247 48.5716 80.9687 47.1448 80.7072C45.5827 80.4352 44.6246 79.4207 44.3122 77.7577C44.2705 77.5276 44.1768 77.3707 44.0935 77.3707C43.9789 77.3707 43.9477 77.7368 43.9477 79.4103C43.9477 81 43.9789 81.4498 44.0831 81.4498C44.156 81.4498 44.2705 81.3033 44.333 81.136C44.4892 80.7281 44.8017 80.7281 46.0201 81.1046C47.2073 81.4916 48.582 81.5021 49.4984 81.1465C51.071 80.5294 51.9458 78.7513 51.4459 77.2034C51.1022 76.1366 50.4357 75.5822 47.6447 74.0343C45.8222 73.0198 45.1974 72.3922 45.1974 71.566C45.1974 71.1162 45.3849 70.7188 45.791 70.3527C46.2596 69.9134 46.5617 69.7984 47.2802 69.7984C48.1758 69.8089 48.8944 70.1226 49.5089 70.7815C50.0192 71.3359 50.2587 71.8065 50.4253 72.6328C50.4982 72.9779 50.5919 73.1871 50.6752 73.1871C50.7898 73.1871 50.821 72.8001 50.821 71.1476C50.821 68.9826 50.7586 68.7525 50.3732 69.4323C50.217 69.7147 50.1441 69.7566 49.8525 69.7043C49.6755 69.6833 49.2381 69.5474 48.8944 69.4219C48.03 69.0872 46.697 69.0349 45.9576 69.2964Z" fill="white"/>
<path d="M57.5902 69.2754C55.0492 69.9448 53.3725 72.0889 53.2371 74.8187C53.1434 76.9314 53.6849 78.4898 54.9763 79.7867C57.736 82.5479 62.3599 81.7216 64.047 78.1551C64.5677 77.0465 64.7135 76.3771 64.7135 75.122C64.7031 73.3544 64.1824 72.0575 62.9848 70.8233C61.8288 69.6205 60.6208 69.0976 58.9962 69.1185C58.5379 69.1185 57.9027 69.1917 57.5902 69.2754ZM60.4021 70.018C61.0373 70.3004 61.6934 70.9907 62.0579 71.7646C62.5057 72.706 62.6932 73.7832 62.6932 75.4671C62.6932 77.7472 62.3183 78.9186 61.2873 79.8704C60.5479 80.5607 59.9959 80.7699 58.9441 80.7699C58.1839 80.7699 57.9756 80.728 57.4653 80.477C56.5384 80.0168 55.8407 79.0232 55.4553 77.6322C55.195 76.6699 55.1325 74.4735 55.3408 73.3963C55.6532 71.7019 56.6009 70.3213 57.7256 69.9029C58.3505 69.6728 59.7772 69.7356 60.4021 70.018Z" fill="white"/>
<path d="M92.5297 69.2545C91.8945 69.4532 91.5195 69.6833 91.1134 70.1226C90.4885 70.7711 90.249 71.3463 90.249 72.1935C90.249 73.5636 90.9051 74.369 92.9567 75.5822C95.3936 77.0151 95.8102 77.308 96.133 77.7786C96.5288 78.3853 96.56 79.2429 96.1955 79.7868C95.2686 81.1674 92.8421 81.0837 91.5716 79.6299C91.1655 79.1697 90.7072 78.0715 90.7072 77.5695C90.7072 77.423 90.6552 77.3707 90.5302 77.3917C90.3636 77.423 90.3428 77.6008 90.3428 79.4102C90.3428 80.9582 90.374 81.3975 90.4781 81.3975C90.551 81.3975 90.6656 81.2824 90.7385 81.136C90.9259 80.7699 91.3529 80.7595 92.3943 81.0837C94.4459 81.7426 96.008 81.4602 97.1848 80.2365C98.2992 79.0651 98.2887 77.172 97.1536 76.0215C96.685 75.5509 96.2059 75.2371 94.623 74.3585C92.1548 72.9675 91.6445 72.4864 91.6445 71.5137C91.6445 70.928 91.9569 70.4364 92.561 70.0808C93.4982 69.5265 94.9354 69.7775 95.8414 70.656C96.3413 71.1372 96.5808 71.6078 96.8099 72.4968C96.9141 72.9256 97.039 73.1871 97.1224 73.1871C97.2369 73.1871 97.2682 72.8106 97.2682 71.1476C97.2682 69.4428 97.2473 69.1081 97.1224 69.1081C97.039 69.1081 96.9037 69.2336 96.8308 69.3905C96.7579 69.5578 96.6017 69.6938 96.4767 69.7147C96.3621 69.7356 95.8414 69.5997 95.3207 69.4219C94.2793 69.0767 93.29 69.014 92.5297 69.2545Z" fill="white"/>
<path d="M120.7 69.3068C118.877 69.7984 117.357 71.2417 116.732 73.0825C116.42 74.0134 116.336 75.8751 116.576 76.8896C116.847 78.0296 117.326 78.8977 118.148 79.724C118.992 80.5816 119.856 81.0837 120.877 81.2928C122.918 81.7321 124.761 81.1464 126.209 79.6194C127.396 78.3643 127.917 77.0046 127.917 75.2266C127.917 73.3754 127.375 72.0157 126.126 70.7815C125.261 69.9134 124.605 69.516 123.668 69.265C122.856 69.0558 121.543 69.0767 120.7 69.3068ZM123.637 70.0389C124.584 70.4991 125.282 71.4404 125.657 72.7792C125.907 73.6368 125.97 76.4921 125.772 77.4439C125.553 78.4689 125.136 79.2742 124.532 79.839C123.866 80.4561 123.22 80.7385 122.314 80.8013C120.544 80.9059 119.252 79.7658 118.638 77.559C118.378 76.6072 118.388 73.6996 118.648 72.8315C119.096 71.3568 119.961 70.269 120.939 69.903C121.596 69.6624 123.012 69.7251 123.637 70.0389Z" fill="white"/>
<path d="M6.00897 69.38C5.87359 69.516 6.06104 69.631 6.3943 69.631C6.89417 69.631 7.38364 69.8297 7.52944 70.0912C7.69606 70.3945 7.76896 79.4625 7.60234 80.09C7.47737 80.5502 7.15453 80.7803 6.44637 80.9059C6.21725 80.9477 6.01939 81.0209 6.00897 81.0837C5.99856 81.1569 7.57109 81.1987 10.5391 81.2196L15.0797 81.2405L15.5587 79.8077C15.8191 79.0128 16.0378 78.3329 16.0378 78.2806C16.0378 78.2388 15.9753 78.2074 15.892 78.2074C15.8087 78.2074 15.6004 78.4689 15.4234 78.7827C14.9547 79.6194 14.4236 80.1528 13.8717 80.3724C13.4655 80.5293 13.0698 80.5607 11.5285 80.5607C9.81014 80.5607 9.65392 80.5502 9.51854 80.362C9.40398 80.1946 9.37274 79.6612 9.37274 77.7577V75.373L11.1952 75.4044C12.9969 75.4358 13.0177 75.4358 13.278 75.7077C13.4343 75.8541 13.6113 76.1993 13.6842 76.4817C13.7467 76.7641 13.8612 77.0046 13.9341 77.036C14.0175 77.0569 14.0591 76.5235 14.0799 75.0279C14.1112 73.1348 14.1008 72.9779 13.9341 72.9779C13.8092 72.9779 13.7467 73.0616 13.7467 73.2394C13.7467 73.3753 13.6738 73.6891 13.5801 73.9192C13.3093 74.5991 13.0385 74.6827 11.0702 74.735L9.37274 74.7769V72.3608V69.9448H11.4347C13.1843 69.9448 13.5384 69.9762 13.8404 70.133C14.309 70.3631 14.559 70.7187 14.7256 71.3672C14.8089 71.7124 14.9131 71.8902 15.0485 71.9215C15.2255 71.9529 15.2359 71.8902 15.1734 71.0848C15.1318 70.6037 15.1005 70.0075 15.1005 69.7565V69.3172H10.5912C8.10222 69.3172 6.04021 69.3486 6.00897 69.38Z" fill="white"/>
<path d="M16.7668 69.4637C16.7668 69.5892 16.8709 69.631 17.2146 69.631C17.7665 69.631 18.2977 69.9448 18.4018 70.3318C18.4539 70.4887 18.4851 72.7478 18.4851 75.3312C18.4851 79.724 18.4747 80.0692 18.2977 80.3411C18.079 80.6758 17.5478 80.9268 17.0688 80.9268C16.8605 80.9268 16.7668 80.9686 16.798 81.0523C16.8293 81.1569 17.4229 81.1883 19.3183 81.1883C21.2136 81.1883 21.8072 81.1569 21.8489 81.0523C21.8697 80.9686 21.776 80.9268 21.5677 80.9268C21.0574 80.9268 20.4117 80.613 20.2868 80.3097C20.2243 80.1633 20.1514 79.0651 20.1201 77.8623L20.0785 75.6973H20.7346H21.4011L22.807 77.6531C23.5776 78.7304 24.4837 79.9855 24.8169 80.4352L25.4105 81.251L26.9518 81.2197C28.1911 81.1987 28.4827 81.1569 28.4827 81.0419C28.4827 80.9477 28.2848 80.8431 27.962 80.7699C27.2226 80.6026 26.8893 80.3934 26.2853 79.7554C25.6813 79.1174 23.2131 75.6973 23.234 75.5404C23.2444 75.4776 23.536 75.3312 23.8692 75.2057C24.6295 74.9338 25.1606 74.5154 25.5355 73.9088C26.5457 72.2876 25.7021 70.1749 23.8172 69.5683C23.3694 69.4219 22.7028 69.38 20.0264 69.3382C17.0896 69.3068 16.7668 69.3173 16.7668 69.4637ZM22.7549 70.2586C24.4316 71.0744 24.4524 73.6892 22.7966 74.6409C22.2134 74.9756 21.1303 75.2162 20.5159 75.1534L20.1514 75.122L20.1201 72.6432L20.0993 70.154L20.3284 70.1122C20.4638 70.0808 20.6617 70.0389 20.7762 70.0076C21.2345 69.8925 22.2863 70.0285 22.7549 70.2586Z" fill="white"/>
<path d="M28.6389 69.4742C28.6389 69.5892 28.7535 69.631 29.0555 69.631C29.6283 69.631 30.0448 69.8716 30.1906 70.269C30.3677 70.7711 30.3468 79.9437 30.1698 80.2993C30.0136 80.6235 29.4304 80.9268 28.9826 80.9268C28.7431 80.9268 28.6389 80.9791 28.6389 81.0837C28.6389 81.2197 28.9618 81.2406 31.1591 81.2197C33.0545 81.1987 33.6794 81.1569 33.721 81.0523C33.7418 80.9686 33.6585 80.9268 33.4607 80.9268C32.9191 80.9268 32.388 80.7176 32.2006 80.4248C32.0548 80.1947 32.0131 79.8286 31.9819 77.9146L31.9506 75.6764L32.4505 75.7705C33.3565 75.9169 34.9915 75.8646 35.5747 75.6659C36.2621 75.4254 36.8453 74.9129 37.2306 74.2226C37.5118 73.7101 37.543 73.5741 37.543 72.6642C37.543 71.7751 37.5118 71.6183 37.2618 71.1894C37.1056 70.928 36.7932 70.541 36.5641 70.3318C35.5956 69.4532 34.9291 69.3173 31.3778 69.3173C29.0138 69.3173 28.6389 69.3382 28.6389 69.4742ZM34.2626 70.2586C35.0644 70.677 35.5227 71.43 35.5956 72.4759C35.6685 73.4695 35.481 74.0552 34.8978 74.6618C34.2105 75.3626 33.6794 75.4776 32.263 75.2162L31.9714 75.1534V72.6642V70.1645L32.3672 70.1017C32.5755 70.0599 32.8046 70.018 32.8566 69.9971C33.0649 69.9134 33.8981 70.0703 34.2626 70.2586Z" fill="white"/>
<path d="M65.7653 69.4218C65.6924 69.5473 65.8174 69.5996 66.4318 69.6624C66.9838 69.7356 67.2545 69.9761 67.3795 70.5305C67.5045 71.0639 67.5045 79.4939 67.3795 80.0377C67.265 80.5502 66.9525 80.7908 66.286 80.8954C66.0048 80.9477 65.7757 81.0313 65.7966 81.0836C65.807 81.1464 67.442 81.1882 70.358 81.1882H74.8985L75.3568 79.6821C75.6067 78.8454 75.815 78.1133 75.815 78.0296C75.815 77.7367 75.6067 77.9146 75.4088 78.3748C75.0235 79.2324 74.5028 79.8495 73.8675 80.1528C73.3156 80.4247 73.2219 80.4456 71.6077 80.4456C69.7019 80.4561 69.3894 80.4038 69.2541 80.0273C69.1187 79.6717 69.1187 70.6769 69.2541 70.3108C69.379 69.9657 70.0872 69.6415 70.6912 69.631C71.0141 69.631 71.1286 69.5892 71.1286 69.4741C71.1286 69.3381 70.7641 69.3172 68.4834 69.3172C66.8171 69.3172 65.807 69.3591 65.7653 69.4218Z" fill="white"/>
<path d="M76.3357 69.4741C76.3357 69.5892 76.4502 69.631 76.7418 69.631C77.3042 69.631 77.6479 69.7774 77.8666 70.1226C78.0332 70.3736 78.0644 70.7919 78.1165 74.4422C78.1686 78.2911 78.179 78.4898 78.4081 79.065C78.6789 79.7658 79.4183 80.5921 80.0744 80.9268C81.4699 81.6275 84.0213 81.5961 85.271 80.864C85.9792 80.4456 86.604 79.7449 86.8436 79.0964C87.1768 78.2179 87.2705 76.9732 87.2705 73.6368C87.2705 71.9111 87.3122 70.4677 87.3747 70.3213C87.5101 69.9552 88.062 69.631 88.5515 69.631C88.8223 69.631 88.9368 69.5892 88.9368 69.4741C88.9368 69.3381 88.6348 69.3172 86.854 69.3172C85.0732 69.3172 84.7712 69.3381 84.7712 69.4741C84.7712 69.5892 84.8857 69.631 85.1356 69.631C85.7813 69.631 86.1979 69.8716 86.3229 70.3317C86.4687 70.8547 86.4687 77.0987 86.3333 77.9878C86.1458 79.1383 85.6668 79.7867 84.6462 80.2888C83.7297 80.728 82.3238 80.8012 81.4803 80.4561C81.0221 80.2678 80.418 79.703 80.1889 79.2428C79.8348 78.5526 79.7619 77.5903 79.7932 73.846L79.8244 70.2585L80.1056 69.9866C80.3035 69.7774 80.5118 69.6937 80.9075 69.6519C81.2616 69.6205 81.4386 69.5578 81.4386 69.4636C81.4386 69.3381 80.9804 69.3172 78.8872 69.3172C76.6898 69.3172 76.3357 69.3381 76.3357 69.4741Z" fill="white"/>
<path d="M99.6217 70.2795C99.528 71.7333 99.5384 72.0366 99.7051 72.0366C99.7988 72.0366 99.8821 71.8797 99.9237 71.6182C100.007 71.1371 100.319 70.6351 100.736 70.3213C100.996 70.133 101.205 70.1017 102.329 70.0703L103.621 70.0284V74.8814C103.621 77.8936 103.579 79.8704 103.517 80.111C103.381 80.5921 103.1 80.8013 102.454 80.8849C102.132 80.9268 101.955 81 101.955 81.0941C101.955 81.2196 102.371 81.2405 104.423 81.2196C106.12 81.1987 106.891 81.1569 106.922 81.0732C106.943 81 106.755 80.9268 106.443 80.8849C106.12 80.8431 105.808 80.7176 105.631 80.5712L105.339 80.3201L105.308 75.1848L105.277 70.0494H106.308C107.672 70.0494 107.922 70.1121 108.411 70.5619C108.734 70.8547 108.859 71.0639 108.963 71.4823C109.057 71.8902 109.13 72.0366 109.265 72.0366C109.432 72.0366 109.442 71.932 109.39 71.0116C109.359 70.4573 109.317 69.8402 109.286 69.6519L109.234 69.3172H104.464H99.6946L99.6217 70.2795Z" fill="white"/>
<path d="M110.286 69.4741C110.286 69.5787 110.39 69.631 110.64 69.631C111.098 69.631 111.463 69.767 111.744 70.0494C111.952 70.2585 111.952 70.3631 111.952 75.237V80.2155L111.65 80.5084C111.431 80.728 111.213 80.8326 110.817 80.8849C110.463 80.9268 110.286 81 110.286 81.0941C110.286 81.2196 110.713 81.2405 112.806 81.2196C114.535 81.1987 115.337 81.1569 115.358 81.0732C115.378 81 115.201 80.9268 114.92 80.8954C114.264 80.8013 113.847 80.5607 113.754 80.2155C113.65 79.839 113.65 70.7083 113.754 70.3318C113.858 69.9448 114.389 69.631 114.951 69.631C115.274 69.631 115.389 69.5892 115.389 69.4741C115.389 69.3381 115.035 69.3172 112.837 69.3172C110.64 69.3172 110.286 69.3381 110.286 69.4741Z" fill="white"/>
<path d="M128.406 69.4741C128.406 69.5787 128.511 69.631 128.698 69.631C129.115 69.631 129.969 70.0703 130.364 70.4886L130.708 70.8547L130.677 75.5822L130.645 80.3201L130.354 80.5711C130.177 80.7176 129.875 80.8431 129.552 80.8849C129.208 80.9268 129.031 81 129.031 81.0941C129.031 81.2091 129.406 81.2405 131.062 81.2405C132.718 81.2405 133.093 81.2091 133.093 81.0941C133.093 81 132.916 80.9268 132.583 80.8849C131.916 80.8012 131.635 80.5607 131.52 79.9854C131.416 79.4102 131.395 71.932 131.51 71.932C131.552 71.9424 132.083 72.5595 132.687 73.323C136.956 78.6467 139.268 81.4497 139.393 81.4497C139.529 81.4497 139.55 80.7071 139.55 76.0215C139.55 72.2458 139.581 70.4991 139.664 70.2585C139.8 69.8716 140.258 69.631 140.851 69.631C141.101 69.631 141.216 69.5892 141.216 69.4741C141.216 69.3381 140.914 69.3172 139.133 69.3172C137.436 69.3172 137.05 69.3486 137.05 69.4636C137.05 69.5578 137.227 69.6205 137.633 69.6519C138.331 69.7147 138.602 69.9448 138.727 70.5828C138.852 71.2417 138.841 78.1237 138.716 78.0819C138.633 78.0505 136.457 75.3835 132.541 70.4886L131.593 69.3172H130C128.656 69.3172 128.406 69.3381 128.406 69.4741Z" fill="white"/>
</svg>
